<?xml version ="1.0" encoding ="utf-8" ?>
<svg  version="1.1" xmlns="http://www.w3.org/2000/svg" baseProfile="full">

  <symbol id="logo-ru" viewBox="0 0 311 70">
    <g>
    	<g>
    		<path style="fill:#00A8FF;" d="M12.09,32.1c-2.98-4.17-4.73-9.24-4.96-14.12c-0.02-0.35-0.02-0.69-0.02-1.05v-0.02
    			V16.9c0-4.05,1.19-7.74,3.15-10.53c1.09-1.86,3.52-3.75,6.65-4.99c-1.41,0.53-2.77,1.22-4.07,2.04v0
    			c-22.63,13.8-10.37,49.28-1.13,60.25c0.13,0.16,1.13,1.26,1.44,1.56c5.8,5.7,14.11,6.65,18.55,2.12
    			c4.33-4.41,3.37-12.42-2.08-18.1C23.89,43.08,17.39,39.93,12.09,32.1"/>
    		<path style="fill:#00A8FF;" d="M23.45,0.07c-0.35,0.01-0.7,0.03-1.05,0.06c1.87-0.1,3.49,0.19,4.6,0.84
    			c0.19,0.11,0.39,0.23,0.57,0.36c0.9,0.62,1.63,1.43,2.17,2.39c0.87,1.44,1.31,3.21,1.31,5.16c0,0.05,0,0.09,0,0.14v0
    			c-0.03,3.95-1.81,8.59-5.25,12.46c-0.09,0.1-0.18,0.2-0.27,0.3c0,0,0,0,0,0.01c-0.29,0.34-0.57,0.69-0.83,1.06
    			c-3.4,4.89-2.66,11.29,1.65,14.29c4.31,3,10.57,1.46,13.98-3.44c0.17-0.24,0.33-0.49,0.48-0.74C50.56,17.65,39.21-0.6,23.45,0.07"
    			/>
    		<path style="fill:#F57B20;" d="M15.15,27.48c0.48-8.13,5.73-14.44,11.73-14.08c1.11,0.07,2.22,0.41,3.2,0.89
    			c0.63-1.81,0.96-3.6,0.97-5.27v0V8.88c0-1.95-0.43-3.72-1.31-5.16v0c-0.54-0.95-1.27-1.76-2.17-2.39C27.39,1.2,27.19,1.09,27,0.98
    			c-2.02-1.2-5.78-1.18-9.65,0.24C14,2.45,11.39,4.42,10.25,6.37C8.29,9.17,7.1,12.85,7.1,16.9c0,0.35,0.01,0.7,0.03,1.05
    			c0.22,4.88,1.98,9.95,4.96,14.14c2.41,3.56,5.06,6.16,7.78,8.51C16.75,37.87,14.83,32.96,15.15,27.48"/>
    		<path d="M100.92,45.45c2.58,0,5.39-1.98,5.39-6.81c0-4.84-2.81-6.81-5.39-6.81c-2.6,0-5.4,1.97-5.4,6.81
    			C95.52,43.47,98.32,45.45,100.92,45.45 M100.92,27.87c6.64,0,11.52,3.8,11.52,10.77c0,6.97-4.88,10.77-11.52,10.77
    			c-6.66,0-11.53-3.79-11.53-10.77C89.39,31.67,94.26,27.87,100.92,27.87"/>
    		<path d="M155.93,28.2h-18.91c-0.26,0-0.48,0.2-0.48,0.44v3.15c0,0.24,0.22,0.44,0.48,0.44h6.51v16.4
    			c0,0.25,0.21,0.44,0.49,0.44h4.92c0.27,0,0.47-0.2,0.47-0.44v-16.4h6.52c0.26,0,0.47-0.2,0.47-0.44v-3.15
    			C156.41,28.4,156.19,28.2,155.93,28.2"/>
    		<path d="M133.38,49.08c0.26,0,0.47-0.2,0.47-0.44l-0.03-3.16c0-0.24-0.21-0.44-0.46-0.44
    			c-0.14,0-3.71-0.01-4.48-0.01c-4.1,0-6.88-2.51-6.88-6.31c0-4.18,3.02-6.48,6.96-6.48h4.03c0.25,0,0.46-0.19,0.48-0.41v-3.18
    			c0-0.24-0.22-0.44-0.48-0.44h-5.02c-7.96,0-12.09,4.67-12.09,10.24c0,5.52,4,10.63,11.99,10.63H133.38z"/>
    		<path d="M254.36,48.63l-9.08-10.55l7.07-8.42h-0.01c0,0,0.17-0.2,0.37-0.44l0.51-0.6
    			c0.15-0.21,0.04-0.41-0.28-0.41h-5.47c-0.26,0-0.49,0.09-0.66,0.26l-6.97,9.22h-0.22v-8.02v-1.02c0-0.24-0.19-0.43-0.44-0.44
    			h-4.96c-0.26,0-0.48,0.2-0.48,0.44v20c0,0.25,0.21,0.44,0.48,0.44h4.93c0.25,0,0.47-0.2,0.47-0.44v-9.55h0.22l7.26,9.65
    			c0.18,0.25,0.42,0.34,0.73,0.34h6.25C254.44,49.08,254.54,48.85,254.36,48.63"/>
    		<path d="M76.19,34.04h-2.81V25.3h2.81c3.53,0,5.13,1.9,5.13,4.23C81.32,31.67,79.89,34.04,76.19,34.04
    			 M76.19,20.87h-6.8c-1.12,0.16-2,1.01-2.14,2.06v25.71c0,0.25,0.2,0.44,0.46,0.44h5.19c0.26,0,0.47-0.2,0.47-0.44V38.48h3.92
    			c7.73,0,10.49-5.07,10.49-8.78C87.8,27.92,87.15,20.87,76.19,20.87"/>
    		<path d="M203.1,28.2h-13.6h-1.41c-1.4,0-2.54,1.07-2.54,2.38v8.01c0,4.09-1.69,6.41-4.6,6.41h-0.15
    			c-0.25,0.01-0.45,0.18-0.46,0.41v3.02v0.21c0,0.23,0.19,0.42,0.43,0.44c0.3,0,0.73-0.01,1.28-0.01c3.07,0,8.73-1.43,8.73-10.49
    			v-6.35h6.9v16.4c0,0.25,0.21,0.44,0.46,0.44h4.94c0.26,0,0.47-0.2,0.47-0.44v-20C203.55,28.4,203.35,28.21,203.1,28.2"/>
    		<path d="M309.63,32.05v-1.46c0-1.3-1.15-2.38-2.54-2.38h-4.64c-0.22,0.04-0.42,0.12-0.61,0.38l-6.5,9.46
    			l-6.44-9.46V28.6c-0.29-0.4-0.61-0.4-0.94-0.4h-3.61h-0.71c-1.39,0-2.54,1.07-2.54,2.38v9.02v9.07c0.01,0.23,0.21,0.42,0.47,0.42
    			h4.93c0.25,0,0.47-0.2,0.47-0.44l0.01-11.45l-0.13-4.25h0.21l7.58,11.33c0.4,0.56,1.11,0.55,1.48-0.01l7.56-11.32h0.22l-0.13,4.25
    			v11.45c0,0.25,0.21,0.44,0.47,0.44h4.93c0.25,0,0.46-0.2,0.46-0.44V32.05z"/>
    		<path d="M265.86,45.45c2.59,0,5.39-1.98,5.39-6.81c0-4.84-2.79-6.81-5.39-6.81c-2.6,0-5.39,1.97-5.39,6.81
    			C260.47,43.47,263.27,45.45,265.86,45.45 M265.86,27.87c6.65,0,11.53,3.8,11.53,10.77c0,6.97-4.88,10.77-11.53,10.77
    			c-6.65,0-11.52-3.79-11.52-10.77C254.34,31.67,259.21,27.87,265.86,27.87"/>
    		<path d="M168.87,31.67c2.16,0,4.71,1.36,4.62,4.88h-9.2C164.34,33.8,166.28,31.67,168.87,31.67 M176.57,45h-4.82
    			c-3.99,0-7.28-2.05-7.46-4.71h12.42c1.39,0,2.54-1.07,2.54-2.37v-0.48c-0.26-3.27-1.7-9.58-10.04-9.58
    			c-6,0-11.05,4.04-11.05,10.77c0,7.38,6.67,10.44,13.36,10.44h5.05c0.24,0,0.46-0.19,0.47-0.42v-3.27
    			C177.02,45.17,176.82,45,176.57,45"/>
    		<path d="M218.49,31.67c2.17,0,4.71,1.37,4.62,4.88h-9.19C213.96,33.8,215.9,31.67,218.49,31.67 M226.64,44.53
    			c0,0-3.02,0.27-5.28,0.27c-3.99,0-7.28-1.84-7.44-4.5h12.45c1.38,0,2.53-1.06,2.54-2.37c-0.16-3.08-1.3-10.06-10.08-10.06
    			c-6,0-11.04,4.04-11.04,10.77c0,7.38,6.63,10.44,13.35,10.44c2.61,0,5.5-0.27,5.5-0.27c0.25,0,0.46-0.19,0.47-0.42v-3.47
    			C227.09,44.7,226.89,44.53,226.64,44.53"/>
    	</g>
    </g>
	</symbol>

  <symbol id="logo-en" viewBox="0 0 281 70">
    <g>
    	<g>
    		<path style="fill:#00A8FF;" d="M12.11,32.04c-2.98-4.17-4.73-9.24-4.96-14.12c-0.02-0.35-0.02-0.69-0.02-1.05
    			v-0.02v-0.01c0-4.05,1.19-7.74,3.15-10.53c1.09-1.86,3.52-3.75,6.65-4.99c-1.41,0.53-2.77,1.22-4.07,2.04v0
    			c-22.63,13.8-10.37,49.28-1.13,60.25c0.13,0.16,1.13,1.26,1.44,1.56c5.8,5.7,14.11,6.65,18.55,2.12
    			c4.33-4.41,3.37-12.42-2.08-18.1C23.91,43.03,17.41,39.87,12.11,32.04"/>
    		<path style="fill:#00A8FF;" d="M23.47,0.02c-0.35,0.01-0.7,0.03-1.05,0.06c1.87-0.1,3.49,0.19,4.6,0.84
    			c0.19,0.11,0.39,0.23,0.57,0.36c0.9,0.62,1.63,1.43,2.17,2.39c0.87,1.44,1.31,3.21,1.31,5.16c0,0.05,0,0.09,0,0.14v0
    			c-0.03,3.95-1.81,8.59-5.25,12.47c-0.09,0.1-0.18,0.2-0.27,0.3c0,0,0,0,0,0.01c-0.29,0.34-0.57,0.69-0.83,1.06
    			c-3.4,4.89-2.66,11.29,1.65,14.29c4.31,3,10.57,1.46,13.98-3.44c0.17-0.24,0.33-0.49,0.48-0.74C50.58,17.6,39.23-0.65,23.47,0.02"
    			/>
    		<path style="fill:#F57B20;" d="M15.17,27.43c0.48-8.13,5.73-14.44,11.73-14.08c1.11,0.07,2.22,0.41,3.2,0.89
    			c0.63-1.81,0.96-3.6,0.97-5.27v0V8.83c0-1.95-0.43-3.72-1.31-5.16v0c-0.54-0.95-1.27-1.76-2.17-2.39
    			c-0.19-0.13-0.38-0.25-0.58-0.36c-2.02-1.2-5.78-1.18-9.65,0.24c-3.35,1.23-5.95,3.21-7.09,5.15c-1.96,2.8-3.15,6.49-3.15,10.53
    			c0,0.35,0.01,0.7,0.03,1.05c0.22,4.88,1.98,9.95,4.96,14.14c2.41,3.56,5.06,6.16,7.78,8.51C16.77,37.81,14.85,32.9,15.17,27.43"/>
    	</g>
    	<g>
    		<path d="M221.64,49.07c0.24,0,0.44-0.2,0.44-0.43l-0.02-3.18c0-0.24-0.19-0.44-0.44-0.44c-0.13,0-3.48,0-4.19,0
    			c-3.84,0-6.42-2.53-6.42-6.32c0-4.2,2.82-6.49,6.5-6.49l3.78-0.01c0.22,0,0.41-0.18,0.42-0.41l0.01-3.19
    			c0-0.25-0.2-0.44-0.43-0.44h-4.71c-7.44,0-11.31,4.68-11.31,10.26c0,5.53,3.73,10.66,11.21,10.66H221.64z"/>
    		<path d="M124.73,36.6c-1.69-0.57-3.67-0.88-3.67-2.7c0-0.53,0.18-1.71,3.25-1.71h4.83c0.24,0,0.44-0.2,0.44-0.44
    			V28.6c0-0.24-0.19-0.44-0.44-0.44h-5.92c-6.17,0-7.63,3.47-7.63,5.85c0,3.55,2.31,4.89,5.62,6.1c1.98,0.72,3.64,1.21,3.64,2.94
    			c0,0.85-0.65,1.97-3.47,1.97h-5.46c-0.24,0-0.43,0.19-0.44,0.42v3.19c0,0.23,0.2,0.42,0.44,0.42h6.26c5.61,0,8.15-2.82,8.15-6.13
    			C130.33,38.82,127.11,37.37,124.73,36.6"/>
    		<path d="M101.23,45.43c-2.42,0-5.05-1.98-5.05-6.82c0-4.85,2.63-6.82,5.05-6.82c2.42,0,5.05,1.97,5.05,6.82
    			C106.28,43.46,103.65,45.43,101.23,45.43 M101.23,27.84c-6.22,0-10.78,3.8-10.78,10.78c0,6.98,4.56,10.78,10.78,10.78
    			c6.21,0,10.78-3.79,10.78-10.78C112.01,31.63,107.44,27.84,101.23,27.84"/>
    		<path d="M234.95,45.43c-2.42,0-5.05-1.98-5.05-6.82c0-4.85,2.63-6.82,5.05-6.82c2.42,0,5.04,1.97,5.04,6.82
    			C239.99,43.46,237.37,45.43,234.95,45.43 M234.95,27.84c-6.22,0-10.78,3.8-10.78,10.78c0,6.98,4.56,10.78,10.78,10.78
    			c6.22,0,10.77-3.79,10.77-10.78C245.72,31.63,241.17,27.84,234.95,27.84"/>
    		<path d="M192.29,31.62c2.01,0,4.4,1.37,4.33,4.89h-8.61C188.05,33.75,189.87,31.62,192.29,31.62 M199.92,44.5
    			c0,0-2.82,0.27-4.94,0.27c-3.74,0-6.81-1.84-6.97-4.51h11.65c1.3,0,2.38-1.07,2.38-2.37c-0.14-3.09-1.21-10.06-9.42-10.06
    			c-5.61,0-10.34,4.04-10.34,10.78c0,7.39,6.21,10.46,12.49,10.46c2.44,0,5.14-0.27,5.14-0.27c0.24,0,0.43-0.19,0.45-0.42v-3.47
    			C200.33,44.67,200.15,44.5,199.92,44.5"/>
    		<path d="M159.3,31.62c2.02,0,4.4,1.37,4.32,4.89h-8.6C155.07,33.75,156.88,31.62,159.3,31.62 M166.93,44.5
    			c0,0-2.83,0.27-4.94,0.27c-3.73,0-6.81-1.84-6.97-4.51h11.65c1.31,0,2.37-1.07,2.37-2.37c-0.14-3.09-1.22-10.06-9.43-10.06
    			c-5.61,0-10.33,4.04-10.33,10.78c0,7.39,6.21,10.46,12.49,10.46c2.45,0,5.16-0.27,5.16-0.27c0.23,0,0.42-0.19,0.44-0.42v-3.47
    			C167.35,44.67,167.16,44.5,166.93,44.5"/>
    		<path d="M178.03,20.82h-2.69c-1.29,0-2.37,1.07-2.37,2.37v25.45c0,0.23,0.2,0.43,0.44,0.43h4.61
    			c0.24,0,0.44-0.2,0.44-0.43V21.25C178.46,21.01,178.26,20.82,178.03,20.82"/>
    		<path d="M76.1,33h-3.07v-7.74h3.07c4.52,0,4.81,2.91,4.81,3.83C80.91,30.74,79.73,33,76.1,33 M88.68,48.56
    			L84.3,38.13c-0.69-1.61-1.58-2.66-2.95-2.99v-0.08c1.98-0.48,5.45-1.94,5.45-6.58c0-3.79-1.94-7.66-9.49-7.66h-7.64
    			c-1.3,0-2.37,1.07-2.37,2.37v25.45c0,0.24,0.2,0.43,0.44,0.43h4.85c0.24,0,0.44-0.2,0.44-0.43v-11.2h2.18
    			c1.9,0,2.95,0.98,3.64,2.67l3.45,8.52c0.12,0.29,0.3,0.43,0.6,0.43h5.48C88.63,49.06,88.8,48.83,88.68,48.56"/>
    		<path d="M146.46,45.02h-0.97c-3.55,0-3.44-2-3.44-4.06v-8.77h4.41c0.24,0,0.44-0.19,0.44-0.43V28.6
    			c0-0.24-0.2-0.44-0.44-0.44h-4.41v-4.35c0-0.24-0.2-0.44-0.43-0.44l-2.68,0c-1.3,0-2.37,1.07-2.37,2.37v2.41h-3.68
    			c-0.23,0-0.43,0.18-0.44,0.41v3.22c0.01,0.22,0.21,0.4,0.44,0.4h3.68v10.76c0,3.37,2.02,6.11,7.7,6.11h2.2
    			c0.24,0,0.44-0.2,0.44-0.43v-3.17C146.9,45.23,146.69,45.02,146.46,45.02"/>
    		<path d="M274.06,27.84c-2.66,0-5.37,1.13-6.86,3.92h-0.12c-0.53-1.82-1.98-3.92-5.73-3.92
    			c-2.67,0-5.21,1.22-6.42,3.88h-0.13v-1.18c0-1.3-1.08-2.37-2.38-2.37h-2.39c-0.24,0-0.44,0.2-0.44,0.44v20.04
    			c0,0.23,0.2,0.43,0.44,0.43h4.62c0.24,0,0.43-0.2,0.43-0.43V37.52c0-3.76,2.34-5.2,4.32-5.2c2.74,0,3.02,2.5,3.02,5v11.31
    			c0,0.23,0.21,0.43,0.45,0.43h4.6c0.22,0,0.4-0.16,0.43-0.36V37.52c0-3.51,2.14-5.2,4.25-5.2c3.15,0,3.1,3.06,3.1,5v11.31
    			c0,0.23,0.2,0.43,0.45,0.43h4.61c0.24,0,0.44-0.2,0.44-0.43V35.15C280.76,28.28,275.92,27.84,274.06,27.84"/>
    	</g>
    </g>
	</symbol>

	<symbol id="social-twitter" viewBox="0 0 15 13">
		<title>social-twitter</title>
		<path d="M 14.64 1.92C 14.1 2.16 13.52 2.33 12.92 2.41 13.54 2.02 14.01 1.41 14.24 0.69 13.66 1.04 13.01 1.3 12.33 1.44 11.78 0.84 11 0.46 10.14 0.46 8.48 0.46 7.13 1.85 7.13 3.57 7.13 3.81 7.16 4.05 7.21 4.28 4.71 4.15 2.5 2.91 1.02 1.03 0.76 1.49 0.61 2.02 0.61 2.59 0.61 3.67 1.14 4.62 1.95 5.18 1.46 5.16 0.99 5.02 0.59 4.79 0.59 4.8 0.59 4.82 0.59 4.83 0.59 6.33 1.62 7.59 3 7.88 2.75 7.95 2.48 7.98 2.21 7.98 2.01 7.98 1.82 7.97 1.64 7.93 2.02 9.16 3.13 10.06 4.45 10.09 3.42 10.92 2.12 11.42 0.72 11.42 0.47 11.42 0.23 11.4-0 11.37 1.33 12.26 2.91 12.77 4.6 12.77 10.13 12.77 13.15 8.03 13.15 3.93 13.15 3.79 13.15 3.66 13.14 3.53 13.73 3.09 14.24 2.54 14.64 1.92Z" />
	</symbol>

	<symbol id="social-facebook" viewBox="0 0 8 15">
		<path d="M 1.85 15C 1.85 15 4.59 15 4.59 15 4.59 15 4.59 7.62 4.59 7.62 4.59 7.62 7.08 7.61 7.08 7.61 7.08 7.61 7.34 5.07 7.34 5.07 7.34 5.07 4.59 5.07 4.59 5.07 4.59 5.07 4.59 3.8 4.59 3.8 4.59 3.13 4.64 2.78 5.58 2.78 5.58 2.78 7.32 2.78 7.32 2.78 7.32 2.78 7.32 0.23 7.32 0.23 7.32 0.23 4.82 0.23 4.82 0.23 2.41 0.23 1.85 1.49 1.85 3.57 1.85 3.57 1.85 5.07 1.85 5.07 1.85 5.07 0.02 5.07 0.02 5.07 0.02 5.07 0.02 7.62 0.02 7.62 0.02 7.62 1.85 7.62 1.85 7.62 1.85 7.62 1.85 15 1.85 15Z" />
	</symbol>

	<symbol id="social-vk" viewBox="0 0 18 10">
		<path d="M 15.64 4.52C 15.89 4.25 16.08 4.02 16.22 3.86 17.25 2.65 17.69 1.88 17.56 1.55 17.56 1.55 17.5 1.47 17.5 1.47 17.47 1.42 17.38 1.38 17.23 1.34 17.08 1.3 16.89 1.29 16.66 1.32 16.66 1.32 14.1 1.33 14.1 1.33 14.04 1.33 13.98 1.33 13.92 1.34 13.86 1.34 13.82 1.35 13.8 1.36 13.79 1.37 13.77 1.37 13.76 1.38 13.76 1.38 13.72 1.4 13.72 1.4 13.69 1.42 13.66 1.45 13.63 1.49 13.59 1.53 13.56 1.57 13.54 1.62 13.26 2.26 12.94 2.85 12.59 3.39 12.37 3.72 12.16 4 11.98 4.24 11.8 4.48 11.64 4.65 11.52 4.76 11.39 4.88 11.28 4.97 11.18 5.04 11.08 5.1 11 5.13 10.95 5.12 10.9 5.11 10.85 5.1 10.8 5.09 10.71 5.04 10.65 4.98 10.6 4.9 10.55 4.82 10.51 4.71 10.5 4.59 10.48 4.47 10.47 4.36 10.46 4.27 10.46 4.18 10.46 4.06 10.47 3.9 10.47 3.73 10.48 3.62 10.48 3.57 10.48 3.37 10.48 3.15 10.49 2.92 10.5 2.68 10.51 2.5 10.51 2.36 10.52 2.23 10.52 2.08 10.52 1.93 10.52 1.78 10.51 1.66 10.49 1.57 10.47 1.49 10.44 1.4 10.4 1.32 10.36 1.24 10.3 1.18 10.22 1.13 10.14 1.09 10.04 1.05 9.92 1.03 9.6 0.96 9.2 0.93 8.72 0.92 7.61 0.91 6.91 0.98 6.59 1.11 6.47 1.17 6.35 1.25 6.25 1.35 6.15 1.46 6.13 1.53 6.21 1.54 6.56 1.58 6.82 1.7 6.96 1.88 6.96 1.88 7.02 1.97 7.02 1.97 7.06 2.04 7.1 2.16 7.14 2.33 7.18 2.5 7.21 2.7 7.22 2.91 7.25 3.29 7.25 3.62 7.22 3.89 7.19 4.16 7.17 4.37 7.14 4.52 7.11 4.68 7.07 4.8 7.02 4.89 6.97 4.99 6.93 5.05 6.91 5.07 6.89 5.09 6.88 5.1 6.87 5.11 6.79 5.13 6.71 5.15 6.63 5.15 6.54 5.15 6.44 5.11 6.32 5.04 6.21 4.96 6.08 4.86 5.96 4.73 5.83 4.6 5.68 4.42 5.52 4.19 5.36 3.96 5.2 3.69 5.03 3.38 5.03 3.38 4.88 3.15 4.88 3.15 4.8 3 4.67 2.79 4.52 2.51 4.37 2.23 4.23 1.96 4.11 1.69 4.06 1.58 3.99 1.5 3.9 1.44 3.9 1.44 3.85 1.42 3.85 1.42 3.82 1.4 3.78 1.38 3.71 1.35 3.64 1.33 3.58 1.31 3.51 1.3 3.51 1.3 1.07 1.32 1.07 1.32 0.82 1.32 0.65 1.37 0.56 1.47 0.56 1.47 0.53 1.51 0.53 1.51 0.51 1.54 0.5 1.58 0.5 1.64 0.5 1.7 0.52 1.77 0.55 1.85 0.91 2.59 1.3 3.3 1.71 3.99 2.13 4.68 2.5 5.23 2.8 5.65 3.11 6.07 3.43 6.46 3.75 6.84 4.07 7.21 4.28 7.45 4.38 7.55 4.49 7.66 4.57 7.73 4.63 7.79 4.63 7.79 4.85 7.98 4.85 7.98 4.99 8.1 5.2 8.25 5.48 8.43 5.75 8.6 6.06 8.78 6.39 8.95 6.73 9.12 7.12 9.26 7.56 9.36 8.01 9.47 8.44 9.51 8.86 9.49 8.86 9.49 9.88 9.49 9.88 9.49 10.09 9.48 10.25 9.42 10.35 9.32 10.35 9.32 10.39 9.28 10.39 9.28 10.41 9.25 10.43 9.2 10.46 9.14 10.48 9.07 10.49 9 10.49 8.92 10.48 8.69 10.5 8.49 10.54 8.31 10.59 8.13 10.64 7.99 10.7 7.9 10.75 7.81 10.82 7.73 10.89 7.67 10.96 7.61 11.01 7.57 11.04 7.56 11.07 7.54 11.09 7.53 11.11 7.53 11.25 7.49 11.42 7.53 11.61 7.65 11.8 7.77 11.99 7.93 12.15 8.11 12.32 8.29 12.53 8.49 12.76 8.72 13 8.94 13.21 9.11 13.39 9.22 13.39 9.22 13.56 9.31 13.56 9.31 13.68 9.38 13.84 9.43 14.03 9.49 14.22 9.54 14.38 9.55 14.52 9.53 14.52 9.53 16.8 9.49 16.8 9.49 17.03 9.49 17.2 9.46 17.33 9.4 17.45 9.33 17.52 9.26 17.55 9.18 17.57 9.1 17.57 9.01 17.55 8.91 17.53 8.81 17.51 8.74 17.49 8.7 17.47 8.66 17.45 8.63 17.43 8.61 17.14 8.13 16.57 7.55 15.73 6.87 15.73 6.87 15.72 6.85 15.72 6.85 15.72 6.85 15.71 6.84 15.71 6.84 15.71 6.84 15.7 6.84 15.7 6.84 15.7 6.84 15.69 6.84 15.69 6.84 15.31 6.52 15.07 6.3 14.97 6.19 14.79 5.98 14.74 5.77 14.84 5.56 14.92 5.39 15.18 5.05 15.64 4.52Z" />
	</symbol>

	<symbol id="social-youtube" viewBox="0 0 10 11">
		<path d="M 8.73 4.93C 8.73 4.93 2.1 0.82 2.1 0.82 1.9 0.7 1.66 0.72 1.47 0.72 0.74 0.72 0.74 1.28 0.74 1.42 0.74 1.42 0.74 9.84 0.74 9.84 0.74 9.96 0.74 10.54 1.47 10.54 1.66 10.54 1.9 10.56 2.1 10.44 2.1 10.44 8.73 6.32 8.73 6.32 9.27 6 9.18 5.63 9.18 5.63 9.18 5.63 9.27 5.25 8.73 4.93Z" />
	</symbol>

	<symbol id="social-flickr" viewBox="0 0 18 9">
		<path d="M 0.22 4.62C 0.22 6.65 1.89 8.31 3.96 8.31 6.02 8.31 7.69 6.65 7.69 4.62 7.69 2.58 6.02 0.92 3.96 0.92 1.89 0.92 0.22 2.58 0.22 4.62ZM 9.83 4.62C 9.83 6.65 11.5 8.31 13.56 8.31 15.63 8.31 17.3 6.65 17.3 4.62 17.3 2.58 15.63 0.92 13.56 0.92 11.5 0.92 9.83 2.58 9.83 4.62Z" />
	</symbol>

	<symbol id="social-ok" viewBox="0 0 10 16">
		<path d="M 5.11 8.09C 7.38 8.09 9.23 6.28 9.23 4.05 9.23 1.81 7.38-0 5.11-0 2.84-0 0.99 1.81 0.99 4.05 0.99 6.28 2.84 8.09 5.11 8.09ZM 5.11 2.06C 6.23 2.06 7.14 2.95 7.14 4.05 7.14 5.14 6.23 6.04 5.11 6.04 3.99 6.04 3.08 5.14 3.08 4.05 3.08 2.95 3.99 2.06 5.11 2.06ZM 9.86 8.58C 9.62 8.13 8.98 7.74 8.12 8.41 6.97 9.3 5.11 9.3 5.11 9.3 5.11 9.3 3.25 9.3 2.1 8.41 1.24 7.74 0.6 8.13 0.36 8.58-0.04 9.38 0.42 9.77 1.45 10.42 2.33 10.98 3.54 11.19 4.33 11.26 4.33 11.26 3.67 11.91 3.67 11.91 2.75 12.81 1.86 13.68 1.25 14.29 0.88 14.65 0.88 15.24 1.25 15.6 1.25 15.6 1.36 15.71 1.36 15.71 1.73 16.07 2.33 16.07 2.69 15.71 2.69 15.71 5.12 13.33 5.12 13.33 6.04 14.23 6.93 15.11 7.55 15.71 7.92 16.07 8.51 16.07 8.88 15.71 8.88 15.71 8.99 15.6 8.99 15.6 9.36 15.24 9.36 14.65 8.99 14.29 8.99 14.29 6.57 11.91 6.57 11.91 6.57 11.91 5.91 11.26 5.91 11.26 6.69 11.18 7.89 10.97 8.77 10.42 9.8 9.77 10.26 9.38 9.86 8.58Z" />
	</symbol>

	<symbol id="social-inst" viewBox="0 0 16 16">
		<path d="M2.053,-0.001 L13.947,-0.001 C15.076,-0.001 16.001,0.835 16.001,2.053 L16.001,13.947 C16.001,15.164 15.076,16.000 13.947,16.000 L2.053,16.000 C0.923,16.000 -0.001,15.164 -0.001,13.947 L-0.001,2.053 C-0.001,0.835 0.923,-0.001 2.053,-0.001 L2.053,-0.001 ZM11.656,1.777 C11.259,1.777 10.935,2.101 10.935,2.497 L10.935,4.222 C10.935,4.618 11.259,4.942 11.656,4.942 L13.464,4.942 C13.860,4.942 14.184,4.618 14.184,4.222 L14.184,2.497 C14.184,2.101 13.860,1.777 13.464,1.777 L11.656,1.777 L11.656,1.777 ZM14.192,6.766 L12.784,6.766 C12.917,7.201 12.989,7.662 12.989,8.139 C12.989,10.800 10.762,12.958 8.015,12.958 C5.268,12.958 3.042,10.800 3.042,8.139 C3.042,7.662 3.113,7.201 3.247,6.766 L1.777,6.766 L1.777,13.525 C1.777,13.875 2.064,14.161 2.414,14.161 L13.556,14.161 C13.906,14.161 14.192,13.875 14.192,13.525 L14.192,6.766 L14.192,6.766 ZM8.015,4.851 C6.240,4.851 4.801,6.245 4.801,7.965 C4.801,9.685 6.240,11.079 8.015,11.079 C9.790,11.079 11.229,9.685 11.229,7.965 C11.229,6.245 9.790,4.851 8.015,4.851 Z"/>
	</symbol>

    <symbol id="social-in" viewBox="0 0 16 16.3">
        <title>linkedin</title>
        <g>
            <rect y="4.3" width="3.4" height="12"/>
            <path d="M12.1,4.3c-2.4,0-2.8,0.9-3,1.7V4.3H5.7v12h3.4V9.4c0-1.1,0.6-1.7,1.7-1.7c1.1,0,1.7,0.6,1.7,1.7v6.9
                H16v-6C16,6.9,15.6,4.3,12.1,4.3z"/>
            <circle cx="1.7" cy="1.7" r="1.7"/>
        </g>
    </symbol>

	<symbol id="social-google" viewBox="0 0 20 19">
		<title>Google+</title>
  		<path d="M19.894,10.633 L17.309,10.633 L17.309,13.157 C17.309,13.211 17.261,13.257 17.203,13.257 L16.090,13.257 C16.032,13.257 15.984,13.211 15.984,13.157 L15.984,10.633 L13.412,10.633 C13.353,10.633 13.306,10.587 13.306,10.531 L13.306,9.435 C13.306,9.380 13.353,9.330 13.412,9.330 L15.984,9.330 L15.984,6.826 C15.984,6.771 16.032,6.724 16.090,6.724 L17.203,6.724 C17.261,6.724 17.309,6.771 17.309,6.826 L17.309,9.330 L19.894,9.330 C19.953,9.330 20.000,9.379 20.000,9.435 L20.000,10.531 C20.000,10.587 19.953,10.633 19.894,10.633 ZM11.672,1.038 C11.655,1.049 11.635,1.056 11.615,1.056 L9.987,1.056 C10.604,1.549 11.886,2.582 11.886,4.575 C11.886,6.560 10.688,7.477 9.632,8.286 L9.597,8.321 C9.265,8.640 8.888,9.005 8.888,9.560 C8.888,10.120 9.265,10.422 9.567,10.665 L10.546,11.405 C11.705,12.355 12.798,13.250 12.798,15.061 C12.798,17.510 10.378,19.990 5.755,19.990 C1.779,19.990 -0.000,18.116 -0.000,16.260 C-0.000,15.793 0.148,14.183 2.062,13.078 C3.682,12.110 5.900,11.962 7.092,11.885 L7.175,11.877 L7.128,11.821 C6.757,11.358 6.372,10.879 6.372,10.105 C6.372,9.707 6.482,9.451 6.598,9.181 L6.638,9.087 C6.367,9.114 6.060,9.138 5.782,9.138 C2.897,9.138 1.339,7.028 1.339,5.043 C1.339,3.756 1.979,2.450 3.050,1.549 C4.412,0.456 5.925,-0.009 8.112,-0.009 L13.018,-0.009 C13.065,-0.009 13.107,0.022 13.120,0.067 C13.133,0.111 13.114,0.157 13.074,0.181 L11.672,1.038 ZM4.656,13.027 C3.131,13.563 2.356,14.469 2.356,15.713 C2.356,17.619 4.250,18.895 7.068,18.895 C9.496,18.895 11.004,17.819 11.005,16.080 C11.005,14.716 10.057,14.000 8.085,12.635 C7.871,12.611 7.737,12.611 7.470,12.611 C7.454,12.611 5.878,12.631 4.656,13.027 ZM6.158,0.977 C5.449,0.977 4.713,1.314 4.283,1.837 C3.887,2.312 3.695,2.948 3.695,3.768 C3.695,5.387 4.676,8.411 7.041,8.411 C7.681,8.411 8.412,8.116 8.862,7.680 C9.531,7.023 9.531,6.087 9.531,5.775 C9.531,3.812 8.330,0.977 6.158,0.977 Z"/>
	</symbol>

	<symbol id="social-livejournal" viewBox="0 0 20 19">
		<title>LiveJournal</title>
  		<path d="M18.923,1.067 C18.230,0.371 17.307,-0.009 16.326,-0.009 C15.345,-0.009 14.423,0.371 13.729,1.066 L2.684,12.047 C2.619,12.114 2.569,12.189 2.538,12.276 L0.038,19.150 C-0.043,19.373 0.009,19.625 0.172,19.797 C0.292,19.924 0.456,19.990 0.625,19.990 C0.686,19.990 0.747,19.983 0.808,19.963 L7.026,18.056 C7.124,18.026 7.212,17.972 7.285,17.901 L18.923,6.262 C19.618,5.571 20.000,4.646 20.000,3.664 C19.999,2.683 19.618,1.761 18.923,1.067 ZM6.308,16.969 L3.981,17.683 C3.845,17.283 3.634,16.933 3.346,16.645 C3.095,16.392 2.804,16.201 2.498,16.044 L3.563,13.117 L5.000,13.117 L5.000,14.365 C5.000,14.711 5.279,14.991 5.625,14.991 L6.728,14.991 L6.308,16.969 ZM15.508,7.909 L7.893,15.525 L8.112,14.495 C8.151,14.310 8.104,14.119 7.986,13.972 C7.867,13.823 7.689,13.742 7.500,13.742 L6.250,13.742 L6.250,12.490 C6.250,12.145 5.970,11.865 5.625,11.865 L4.639,11.865 L12.073,4.474 L12.079,4.482 C12.538,4.025 13.146,3.772 13.794,3.772 C14.441,3.772 15.050,4.025 15.508,4.482 C15.964,4.939 16.218,5.549 16.218,6.196 C16.218,6.845 15.966,7.450 15.508,7.909 ZM18.040,5.379 L17.456,5.964 C17.400,5.069 17.029,4.236 16.392,3.598 C15.754,2.959 14.920,2.591 14.025,2.531 L14.611,1.952 L14.612,1.951 C15.070,1.493 15.678,1.240 16.326,1.240 C16.973,1.240 17.582,1.493 18.040,1.951 C18.497,2.409 18.750,3.016 18.750,3.664 C18.750,4.312 18.499,4.920 18.040,5.379 ZM13.933,5.175 L7.683,11.425 C7.439,11.668 7.439,12.063 7.683,12.308 C7.805,12.429 7.965,12.490 8.125,12.490 C8.285,12.490 8.444,12.429 8.567,12.308 L14.817,6.058 C15.061,5.814 15.061,5.418 14.817,5.175 C14.573,4.929 14.177,4.929 13.933,5.175 Z"/>
	</symbol>

    <symbol id="social-telegram" viewBox="0 0 20 16">
        <title>Telegram</title>
        <path class="cls-1" d="M57.64,60.63l4.7,3.73c.45.34.9.9,1.68.34l2.46-11.28c.34-1.92-.56-1.58-1.79-1.13L52.15,57.36c-.45.23-.9.79-.34.9l3.69,1.35,7.84-5a1.58,1.58,0,0,1,.67-.23c0,.34-.45.68-.67.9a63.59,63.59,0,0,0-5.7,5.29" transform="translate(-51.05 -51.44)"/>
        <path class="cls-1" d="M57.64,60.63,56.81,64l.13.1a1.23,1.23,0,0,0,.75-.29l2.13-1.43Z" transform="translate(-51.05 -51.44)"/>
        <line class="cls-1" x1="5.76" y1="12.65" x2="4.47" y2="8.22"/>
    </symbol>

	<symbol id="social-buffer" viewBox="0 0 20 19">
		<title>Buffer</title>
  		<path d="M7.324,15.857 L6.313,16.865 C5.435,17.732 4.009,17.733 3.132,16.865 C2.710,16.447 2.479,15.887 2.479,15.301 C2.479,14.709 2.710,14.153 3.131,13.735 L6.856,10.039 C7.629,9.274 9.081,8.147 10.139,9.198 C10.625,9.679 11.410,9.674 11.892,9.189 C12.374,8.703 12.371,7.921 11.885,7.439 C10.086,5.651 7.427,5.982 5.111,8.281 L1.386,11.976 C0.492,12.864 0.000,14.043 0.000,15.301 C0.000,16.555 0.492,17.734 1.386,18.622 C2.306,19.534 3.514,19.990 4.722,19.990 C5.930,19.990 7.139,19.534 8.059,18.620 L9.072,17.617 C9.557,17.136 9.560,16.350 9.077,15.864 C8.595,15.378 7.810,15.377 7.324,15.857 ZM18.614,1.500 C16.681,-0.416 13.979,-0.520 12.190,1.256 L10.928,2.507 C10.443,2.990 10.440,3.774 10.922,4.259 C11.405,4.744 12.189,4.749 12.675,4.268 L13.936,3.014 C14.863,2.093 16.076,2.476 16.868,3.260 C17.290,3.680 17.521,4.235 17.521,4.826 C17.521,5.417 17.290,5.973 16.868,6.389 L12.894,10.333 C11.077,12.135 10.224,11.290 9.860,10.929 C9.375,10.447 8.590,10.449 8.108,10.933 C7.625,11.419 7.629,12.206 8.114,12.687 C8.948,13.515 9.901,13.925 10.899,13.925 C12.121,13.925 13.412,13.309 14.640,12.091 L18.614,8.147 C19.507,7.262 20.000,6.082 20.000,4.826 C20.000,3.569 19.507,2.389 18.614,1.500 Z"/>
	</symbol>

	<symbol id="check" viewBox="0 0 10 5">
		<title>Галочка</title>
		<path  d="M 7.57 0.27C 7.99-0.08 8.62-0.03 8.97 0.4 9.33 0.82 9.27 1.45 8.84 1.81 8.84 1.81 5.01 5 5.01 5 5.01 5 3.73 3.46 3.73 3.46 3.73 3.46 7.57 0.27 7.57 0.27M 6.29 3.46C 6.29 3.46 5.01 5 5.01 5 5.01 5 1.6 2.16 1.6 2.16 1.6 2.16 1.17 1.81 1.17 1.81 0.75 1.45 0.69 0.82 1.04 0.4 1.4-0.03 2.03-0.08 2.45 0.27 2.45 0.27 2.88 0.62 2.88 0.62 2.88 0.62 6.29 3.46 6.29 3.46M 5.01 5C 5.01 5 6.29 3.46 6.29 3.46 6.29 3.46 5.01 5 5.01 5 5.01 5 5.01 5 5.01 5ZM 5.01 5C 5.01 5 3.73 3.46 3.73 3.46 3.73 3.46 5.01 5 5.01 5 5.01 5 5.01 5 5.01 5Z" />
	</symbol>

	<symbol id="goto" viewBox="0 0 21 18">
		<title>Изогнутая стрелка</title>
		<path d="M21.000,8.400 L12.833,-0.000 L12.833,4.800 C4.667,6.000 1.167,12.000 -0.000,18.000 C2.917,13.800 7.000,11.880 12.833,11.880 L12.833,16.800 L21.000,8.400 Z"/>
	</symbol>

	<symbol id="loupe" viewBox="0 0 16 16">
		<title>Лупа</title>
		<path d="M 15.53 15.53C 14.95 16.12 14 16.12 13.41 15.53 13.41 15.53 10.76 12.89 10.76 12.89 9.68 13.58 8.39 14 7 14 3.13 14 0 10.87 0 7 0 3.13 3.13-0 7-0 10.87-0 14 3.13 14 7 14 8.39 13.58 9.68 12.89 10.76 12.89 10.76 15.53 13.41 15.53 13.41 16.12 14 16.12 14.95 15.53 15.53ZM 7 2C 4.24 2 2 4.24 2 7 2 9.76 4.24 12 7 12 9.76 12 12 9.76 12 7 12 4.24 9.76 2 7 2Z" />
	</symbol>

	<symbol id="strips" viewBox="0 0 16 16">
		<title>Полоски меню</title>
		<rect x="0" y="0" width="16" height="2"/><rect x="0" y="7" width="16" height="2"/><rect x="0" y="14" width="16" height="2"/>
	</symbol>

	<symbol id="cabin" viewBox="0 0 13 15">
		<title>Домик</title>
		<path d="M 13 7C 13 7 13 9 13 9 13 9 13 15 13 15 13 15 8 15 8 15 8 15 8 9 8 9 8 9 5 9 5 9 5 9 5 15 5 15 5 15 0 15 0 15 0 15 0 9 0 9 0 9 0 7 0 7 0 7-0 7-0 7-0 7 6.5-0 6.5-0 6.5-0 13 7 13 7 13 7 13 7 13 7Z" />
	</symbol>

	<symbol id="next" viewBox="0 0 5 9">
		<title>Следующий</title>
		<path d="M-0.01 0.69C-0.01 0.69 0.71 0 0.71 0 0.71 0 5 4.5 5 4.5 5 4.5 4.28 5.19 4.28 5.19 4.28 5.19-0.01 0.69-0.01 0.69M 4.28 3.81C 4.28 3.81 5 4.5 5 4.5 5 4.5 0.71 9 0.71 9 0.71 9-0.01 8.31-0.01 8.31-0.01 8.31 4.28 3.81 4.28 3.81M 4.28 5.19C 4.28 5.19 5 4.5 5 4.5 5 4.5 5 4.5 5 4.5 5 4.5 4.28 5.19 4.28 5.19 4.28 5.19 4.28 5.19 4.28 5.19ZM 5 4.5C 5 4.5 4.28 3.81 4.28 3.81 4.28 3.81 5 4.5 5 4.5 5 4.5 5 4.5 5 4.5 5 4.5 5 4.5 5 4.5Z" />
	</symbol>

	<symbol id="pdf" viewBox="0 0 50 60">
		<title>pdf</title>
        <g>
            <rect class="fill fill--none stroke stroke--thick" fill="none" stroke="#00a8ff" stroke-width="2" x="1" y="1" width="48" height="58" rx="2" ry="2"/>
            <path class="fill fill--blue" fill="#00a8ff" d="M14.000,10.000 L38.000,10.000 C38.552,10.000 39.000,10.447 39.000,11.000 C39.000,11.552 38.552,11.999 38.000,11.999 L14.000,11.999 C13.448,11.999 13.000,11.552 13.000,11.000 C13.000,10.447 13.448,10.000 14.000,10.000 Z"/>
            <path class="fill fill--blue" fill="#00a8ff" d="M14.000,18.000 L38.000,18.000 C38.552,18.000 39.000,18.448 39.000,19.001 C39.000,19.552 38.552,20.000 38.000,20.000 L14.000,20.000 C13.448,20.000 13.000,19.552 13.000,19.001 C13.000,18.448 13.448,18.000 14.000,18.000 Z"/>
            <path class="fill fill--blue" fill="#00a8ff" d="M14.000,26.000 L25.000,26.000 C25.552,26.000 26.000,26.448 26.000,27.000 C26.000,27.553 25.552,28.000 25.000,28.000 L14.000,28.000 C13.448,28.000 13.000,27.553 13.000,27.000 C13.000,26.448 13.448,26.000 14.000,26.000 Z"/>
            <path class="fill fill--blue" fill="#00a8ff" d="M30.877,44.356 L30.877,46.631 L34.530,46.631 L34.530,48.243 L30.877,48.243 L30.877,52.000 L29.070,52.000 L29.070,42.744 L35.167,42.744 L35.167,44.356 L30.877,44.356 ZM26.210,50.648 C25.560,51.549 24.628,52.000 23.415,52.000 L20.074,52.000 L20.074,42.744 L23.415,42.744 C24.628,42.744 25.560,43.195 26.210,44.096 C26.470,44.460 26.632,44.869 26.697,45.325 C26.762,45.780 26.795,46.462 26.795,47.372 C26.795,48.282 26.762,48.964 26.697,49.419 C26.632,49.875 26.470,50.284 26.210,50.648 ZM24.923,45.708 C24.880,45.379 24.776,45.119 24.611,44.928 C24.308,44.547 23.857,44.356 23.259,44.356 L21.881,44.356 L21.881,50.388 L23.259,50.388 C23.857,50.388 24.308,50.197 24.611,49.816 C24.776,49.625 24.880,49.365 24.923,49.036 C24.966,48.707 24.988,48.152 24.988,47.372 C24.988,46.592 24.966,46.037 24.923,45.708 ZM15.667,48.516 L13.886,48.516 L13.886,52.000 L12.079,52.000 L12.079,42.744 L15.667,42.744 C16.603,42.744 17.346,43.021 17.897,43.576 C18.447,44.131 18.722,44.815 18.722,45.630 C18.722,46.445 18.447,47.129 17.897,47.684 C17.346,48.239 16.603,48.516 15.667,48.516 ZM16.551,44.707 C16.308,44.473 15.983,44.356 15.576,44.356 L13.886,44.356 L13.886,46.891 L15.576,46.891 C15.983,46.891 16.308,46.776 16.551,46.546 C16.794,46.317 16.915,46.011 16.915,45.630 C16.915,45.249 16.794,44.941 16.551,44.707 Z"/>
        </g>
	</symbol>

	<symbol id="doc" viewBox="0 0 50 60">
		<title>doc</title>
		  <g>
		    <rect x="1" y="1" width="48" height="58" rx="2" ry="2" stroke="#00a8ff" stroke-width="2px" fill="none"/>
		    <path d="M14.000,11.000 L38.000,11.000 C38.552,11.000 39.000,11.448 39.000,12.000 C39.000,12.553 38.552,13.000 38.000,13.000 L14.000,13.000 C13.448,13.000 13.000,12.553 13.000,12.000 C13.000,11.448 13.448,11.000 14.000,11.000 Z"/>
		    <path d="M14.000,19.000 L38.000,19.000 C38.552,19.000 39.000,19.447 39.000,20.000 C39.000,20.552 38.552,21.000 38.000,21.000 L14.000,21.000 C13.448,21.000 13.000,20.552 13.000,20.000 C13.000,19.447 13.448,19.000 14.000,19.000 Z"/>
		    <path d="M14.000,27.000 L25.000,27.000 C25.552,27.000 26.000,27.448 26.000,27.999 C26.000,28.552 25.552,29.000 25.000,29.000 L14.000,29.000 C13.448,29.000 13.000,28.552 13.000,27.999 C13.000,27.448 13.448,27.000 14.000,27.000 Z"/>
		    <path d="M32.047,44.278 C31.553,44.278 31.167,44.438 30.890,44.759 C30.717,44.958 30.598,45.229 30.533,45.571 C30.468,45.914 30.435,46.514 30.435,47.372 C30.435,48.230 30.468,48.830 30.533,49.172 C30.598,49.515 30.717,49.786 30.890,49.985 C31.167,50.306 31.553,50.466 32.047,50.466 C32.879,50.466 33.399,50.028 33.607,49.153 L35.440,49.153 C35.275,50.098 34.890,50.821 34.283,51.324 C33.676,51.827 32.931,52.078 32.047,52.078 C31.059,52.078 30.231,51.753 29.564,51.103 C29.139,50.678 28.877,50.212 28.778,49.705 C28.678,49.198 28.628,48.421 28.628,47.372 C28.628,46.323 28.678,45.545 28.778,45.038 C28.877,44.531 29.139,44.066 29.564,43.641 C30.231,42.991 31.059,42.666 32.047,42.666 C32.931,42.666 33.676,42.917 34.283,43.420 C34.890,43.923 35.275,44.646 35.440,45.591 L33.594,45.591 C33.386,44.716 32.870,44.278 32.047,44.278 ZM26.652,51.103 C26.002,51.753 25.179,52.078 24.182,52.078 C23.177,52.078 22.349,51.753 21.699,51.103 C21.274,50.678 21.012,50.212 20.913,49.705 C20.813,49.198 20.763,48.421 20.763,47.372 C20.763,46.323 20.813,45.545 20.913,45.038 C21.012,44.531 21.274,44.066 21.699,43.641 C22.349,42.991 23.177,42.666 24.182,42.666 C25.179,42.666 26.002,42.991 26.652,43.641 C27.077,44.066 27.341,44.534 27.445,45.045 C27.549,45.556 27.601,46.332 27.601,47.372 C27.601,48.412 27.549,49.188 27.445,49.699 C27.341,50.210 27.077,50.678 26.652,51.103 ZM25.697,45.578 C25.632,45.240 25.512,44.971 25.339,44.772 C25.053,44.443 24.667,44.278 24.182,44.278 C23.705,44.278 23.315,44.443 23.012,44.772 C22.839,44.971 22.722,45.240 22.661,45.578 C22.600,45.916 22.570,46.514 22.570,47.372 C22.570,48.230 22.600,48.826 22.661,49.159 C22.722,49.493 22.839,49.760 23.012,49.959 C23.324,50.297 23.714,50.466 24.182,50.466 C24.659,50.466 25.044,50.297 25.339,49.959 C25.512,49.751 25.632,49.480 25.697,49.146 C25.762,48.813 25.794,48.221 25.794,47.372 C25.794,46.514 25.762,45.916 25.697,45.578 ZM18.215,50.648 C17.565,51.549 16.633,52.000 15.420,52.000 L12.079,52.000 L12.079,42.744 L15.420,42.744 C16.633,42.744 17.565,43.195 18.215,44.096 C18.475,44.460 18.638,44.869 18.703,45.325 C18.767,45.780 18.800,46.462 18.800,47.372 C18.800,48.282 18.767,48.964 18.703,49.419 C18.638,49.875 18.475,50.284 18.215,50.648 ZM16.928,45.708 C16.885,45.379 16.781,45.119 16.616,44.928 C16.313,44.547 15.862,44.356 15.264,44.356 L13.886,44.356 L13.886,50.388 L15.264,50.388 C15.862,50.388 16.313,50.197 16.616,49.816 C16.781,49.625 16.885,49.365 16.928,49.036 C16.971,48.707 16.993,48.152 16.993,47.372 C16.993,46.592 16.971,46.037 16.928,45.708 Z"/>
		  </g>
	</symbol>

	<symbol id="docx" viewBox="0 0 50 60">
		<title>docx</title>
		  <g>
		    <rect x="1" y="1" width="48" height="58" rx="2" ry="2" stroke="#00a8ff" stroke-width="2px" fill="none"/>
		    <path d="M14.000,11.001 L38.000,11.001 C38.552,11.001 39.000,11.448 39.000,12.001 C39.000,12.553 38.552,13.000 38.000,13.000 L14.000,13.000 C13.448,13.000 13.000,12.553 13.000,12.001 C13.000,11.448 13.448,11.001 14.000,11.001 Z"/>
		    <path d="M14.000,19.001 L38.000,19.001 C38.552,19.001 39.000,19.448 39.000,20.000 C39.000,20.553 38.552,21.000 38.000,21.000 L14.000,21.000 C13.448,21.000 13.000,20.553 13.000,20.000 C13.000,19.448 13.448,19.001 14.000,19.001 Z"/>
		    <path d="M14.000,27.000 L25.000,27.000 C25.552,27.000 26.000,27.449 26.000,28.000 C26.000,28.553 25.552,29.001 25.000,29.001 L14.000,29.001 C13.448,29.001 13.000,28.553 13.000,28.000 C13.000,27.449 13.448,27.000 14.000,27.000 Z"/>
		    <path d="M41.435,52.000 L39.368,52.000 L37.574,48.776 L35.793,52.000 L33.726,52.000 L36.599,47.255 L33.908,42.744 L35.962,42.744 L37.574,45.734 L39.199,42.744 L41.240,42.744 L38.549,47.255 L41.435,52.000 ZM28.890,49.985 C29.167,50.306 29.553,50.466 30.047,50.466 C30.879,50.466 31.399,50.028 31.607,49.153 L33.440,49.153 C33.275,50.098 32.890,50.821 32.283,51.324 C31.676,51.827 30.931,52.078 30.047,52.078 C29.059,52.078 28.231,51.753 27.564,51.103 C27.139,50.678 26.877,50.212 26.778,49.705 C26.678,49.198 26.628,48.421 26.628,47.372 C26.628,46.323 26.678,45.545 26.778,45.038 C26.877,44.531 27.139,44.066 27.564,43.641 C28.231,42.991 29.059,42.666 30.047,42.666 C30.931,42.666 31.676,42.917 32.283,43.420 C32.890,43.923 33.275,44.646 33.440,45.591 L31.594,45.591 C31.386,44.716 30.870,44.278 30.047,44.278 C29.553,44.278 29.167,44.438 28.890,44.759 C28.717,44.958 28.598,45.229 28.533,45.571 C28.468,45.914 28.435,46.514 28.435,47.372 C28.435,48.230 28.468,48.830 28.533,49.172 C28.598,49.515 28.717,49.786 28.890,49.985 ZM24.652,51.103 C24.002,51.753 23.179,52.078 22.182,52.078 C21.177,52.078 20.349,51.753 19.699,51.103 C19.274,50.678 19.012,50.212 18.913,49.705 C18.813,49.198 18.763,48.421 18.763,47.372 C18.763,46.323 18.813,45.545 18.913,45.038 C19.012,44.531 19.274,44.066 19.699,43.641 C20.349,42.991 21.177,42.666 22.182,42.666 C23.179,42.666 24.002,42.991 24.652,43.641 C25.077,44.066 25.341,44.534 25.445,45.045 C25.549,45.556 25.601,46.332 25.601,47.372 C25.601,48.412 25.549,49.188 25.445,49.699 C25.341,50.210 25.077,50.678 24.652,51.103 ZM23.697,45.578 C23.632,45.240 23.512,44.971 23.339,44.772 C23.053,44.443 22.667,44.278 22.182,44.278 C21.705,44.278 21.315,44.443 21.012,44.772 C20.839,44.971 20.722,45.240 20.661,45.578 C20.600,45.916 20.570,46.514 20.570,47.372 C20.570,48.230 20.600,48.826 20.661,49.159 C20.722,49.493 20.839,49.760 21.012,49.959 C21.324,50.297 21.714,50.466 22.182,50.466 C22.659,50.466 23.044,50.297 23.339,49.959 C23.512,49.751 23.632,49.480 23.697,49.146 C23.762,48.813 23.794,48.221 23.794,47.372 C23.794,46.514 23.762,45.916 23.697,45.578 ZM16.215,50.648 C15.565,51.549 14.633,52.000 13.420,52.000 L10.079,52.000 L10.079,42.744 L13.420,42.744 C14.633,42.744 15.565,43.195 16.215,44.096 C16.475,44.460 16.638,44.869 16.703,45.325 C16.767,45.780 16.800,46.462 16.800,47.372 C16.800,48.282 16.767,48.964 16.703,49.419 C16.638,49.875 16.475,50.284 16.215,50.648 ZM14.928,45.708 C14.885,45.379 14.781,45.119 14.616,44.928 C14.313,44.547 13.862,44.356 13.264,44.356 L11.886,44.356 L11.886,50.388 L13.264,50.388 C13.862,50.388 14.313,50.197 14.616,49.816 C14.781,49.625 14.885,49.365 14.928,49.036 C14.971,48.707 14.993,48.152 14.993,47.372 C14.993,46.592 14.971,46.037 14.928,45.708 Z"/>
		  </g>
	</symbol>

	<symbol id="xls" viewBox="0 0 50 60">
		<title>xls</title>
		  <g>
		    <rect x="1" y="1" width="48" height="58" rx="2" ry="2" stroke="#00a8ff" stroke-width="2px" fill="none"/>
		    <path d="M18.000,11.999 C18.552,11.999 19.000,12.448 19.000,13.000 L19.000,32.000 C19.000,32.552 18.552,33.000 18.000,33.000 C17.448,33.000 17.000,32.552 17.000,32.000 L17.000,13.000 C17.000,12.448 17.448,11.999 18.000,11.999 Z"/>
		    <path d="M14.000,16.000 L33.000,16.000 C33.552,16.000 34.000,16.447 34.000,17.000 C34.000,17.552 33.552,17.999 33.000,17.999 L14.000,17.999 C13.448,17.999 13.000,17.552 13.000,17.000 C13.000,16.447 13.448,16.000 14.000,16.000 Z"/>
		    <path d="M32.773,44.239 C32.314,44.239 31.963,44.349 31.720,44.570 C31.477,44.791 31.356,45.071 31.356,45.409 C31.356,45.686 31.443,45.907 31.616,46.072 C31.815,46.254 32.097,46.371 32.461,46.423 L33.566,46.592 C34.355,46.705 34.944,46.947 35.334,47.320 C35.811,47.762 36.049,48.412 36.049,49.270 C36.049,50.145 35.728,50.832 35.087,51.331 C34.446,51.829 33.622,52.078 32.617,52.078 C31.880,52.078 31.243,51.985 30.706,51.798 C30.169,51.612 29.679,51.298 29.237,50.856 L30.407,49.686 C30.927,50.206 31.668,50.466 32.630,50.466 C33.167,50.466 33.577,50.366 33.858,50.167 C34.140,49.968 34.281,49.682 34.281,49.309 C34.281,48.988 34.186,48.733 33.995,48.542 C33.830,48.386 33.553,48.282 33.163,48.230 L32.058,48.061 C31.278,47.948 30.680,47.693 30.264,47.294 C29.822,46.861 29.601,46.254 29.601,45.474 C29.601,44.633 29.891,43.955 30.472,43.439 C31.053,42.924 31.837,42.666 32.825,42.666 C34.073,42.666 35.070,43.026 35.815,43.745 L34.671,44.876 C34.238,44.451 33.605,44.239 32.773,44.239 ZM22.074,42.744 L23.881,42.744 L23.881,50.388 L28.080,50.388 L28.080,52.000 L22.074,52.000 L22.074,42.744 ZM18.707,52.000 L16.913,48.776 L15.132,52.000 L13.065,52.000 L15.938,47.255 L13.247,42.744 L15.301,42.744 L16.913,45.734 L18.538,42.744 L20.579,42.744 L17.888,47.255 L20.774,52.000 L18.707,52.000 Z"/>
		  </g>
	</symbol>

	<symbol id="xlsx" viewBox="0 0 50 60">
		<title>xlsx</title>
		  <g>
		    <rect x="1" y="1" width="48" height="58" rx="2" ry="2" stroke="#00a8ff" stroke-width="2px" fill="none"/>
		    <path d="M18.000,11.999 C18.552,11.999 19.000,12.448 19.000,13.000 L19.000,32.000 C19.000,32.552 18.552,33.000 18.000,33.000 C17.448,33.000 17.000,32.552 17.000,32.000 L17.000,13.000 C17.000,12.448 17.448,11.999 18.000,11.999 Z"/>
		    <path d="M14.000,16.000 L33.000,16.000 C33.552,16.000 34.000,16.447 34.000,17.000 C34.000,17.552 33.552,17.999 33.000,17.999 L14.000,17.999 C13.448,17.999 13.000,17.552 13.000,17.000 C13.000,16.447 13.448,16.000 14.000,16.000 Z"/>
		    <path d="M41.759,52.000 L39.692,52.000 L37.898,48.776 L36.117,52.000 L34.050,52.000 L36.923,47.255 L34.232,42.744 L36.286,42.744 L37.898,45.734 L39.523,42.744 L41.564,42.744 L38.873,47.255 L41.759,52.000 ZM29.461,46.423 L30.566,46.592 C31.355,46.705 31.944,46.947 32.334,47.320 C32.811,47.762 33.049,48.412 33.049,49.270 C33.049,50.145 32.728,50.832 32.087,51.331 C31.446,51.829 30.622,52.078 29.617,52.078 C28.880,52.078 28.243,51.985 27.706,51.798 C27.169,51.612 26.679,51.298 26.237,50.856 L27.407,49.686 C27.927,50.206 28.668,50.466 29.630,50.466 C30.167,50.466 30.577,50.366 30.858,50.167 C31.140,49.968 31.281,49.682 31.281,49.309 C31.281,48.988 31.186,48.733 30.995,48.542 C30.830,48.386 30.553,48.282 30.163,48.230 L29.058,48.061 C28.278,47.948 27.680,47.693 27.264,47.294 C26.822,46.861 26.601,46.254 26.601,45.474 C26.601,44.633 26.891,43.955 27.472,43.439 C28.053,42.924 28.837,42.666 29.825,42.666 C31.073,42.666 32.070,43.026 32.815,43.745 L31.671,44.876 C31.238,44.451 30.605,44.239 29.773,44.239 C29.314,44.239 28.963,44.349 28.720,44.570 C28.477,44.791 28.356,45.071 28.356,45.409 C28.356,45.686 28.443,45.907 28.616,46.072 C28.815,46.254 29.097,46.371 29.461,46.423 ZM19.074,42.744 L20.881,42.744 L20.881,50.388 L25.080,50.388 L25.080,52.000 L19.074,52.000 L19.074,42.744 ZM15.707,52.000 L13.913,48.776 L12.132,52.000 L10.065,52.000 L12.938,47.255 L10.247,42.744 L12.301,42.744 L13.913,45.734 L15.538,42.744 L17.579,42.744 L14.888,47.255 L17.774,52.000 L15.707,52.000 Z"/>
		  </g>
	</symbol>

	<symbol id="rar" viewBox="0 0 50 60">
		<title>rar</title>
		  <g>
		    <rect x="1" y="1" width="48" height="58" rx="2" ry="2" stroke="#00a8ff" stroke-width="2px" fill="none"/>
		    <path d="M17.000,11.999 C17.552,11.999 18.000,12.447 18.000,13.000 L18.000,31.999 C18.000,32.552 17.552,31.999 17.000,31.999 C16.448,31.999 16.000,32.552 16.000,31.999 L16.000,13.000 C16.000,12.447 16.448,11.999 17.000,11.999 Z"/>
		    <path d="M22.000,17.000 C22.552,17.000 23.000,17.364 23.000,17.812 L23.000,29.562 C23.000,30.011 22.552,31.999 22.000,31.999 C21.448,31.999 21.000,30.011 21.000,29.562 L21.000,17.812 C21.000,17.364 21.448,17.000 22.000,17.000 Z"/>
		    <path d="M29.000,17.000 C29.552,17.000 30.000,17.364 30.000,17.812 L30.000,26.561 C30.000,27.011 29.552,26.999 29.000,26.999 C28.448,26.999 28.000,27.011 28.000,26.561 L28.000,17.812 C28.000,17.364 28.448,17.000 29.000,17.000 Z"/>
		    <path d="M34.000,11.999 C34.552,11.999 35.000,12.447 35.000,13.000 L35.000,29.000 C35.000,29.551 34.552,31.999 34.000,31.999 C33.448,31.999 33.000,29.551 33.000,29.000 L33.000,13.000 C33.000,12.447 33.448,11.999 34.000,11.999 Z"/>
		    <path d="M17.000,11.999 L34.000,11.999 C34.552,11.999 35.000,12.447 35.000,12.999 C35.000,13.552 34.552,13.999 34.000,13.999 L17.000,13.999 C16.448,13.999 16.000,13.552 16.000,12.999 C16.000,12.447 16.448,11.999 17.000,11.999 Z"/>
		    <path d="M22.000,30.000 L34.000,30.000 C34.552,30.000 35.000,30.447 35.000,30.999 C35.000,31.552 34.552,31.999 34.000,31.999 L22.000,31.999 C21.448,31.999 21.000,31.552 21.000,30.999 C21.000,30.447 21.448,30.000 22.000,30.000 Z"/>
		    <path d="M27.000,24.999 L29.000,24.999 C29.552,24.999 30.000,25.447 30.000,25.999 C30.000,26.552 29.552,26.999 29.000,26.999 L27.000,26.999 C26.448,26.999 26.000,26.552 26.000,25.999 C26.000,25.447 26.448,24.999 27.000,24.999 Z"/>
		    <path d="M22.000,17.000 L29.000,17.000 C29.552,17.000 30.000,17.447 30.000,17.999 C30.000,18.552 29.552,18.999 29.000,18.999 L22.000,18.999 C21.448,18.999 21.000,18.552 21.000,17.999 C21.000,17.447 21.448,17.000 22.000,17.000 Z"/>
		    <path d="M35.010,48.009 L37.077,52.000 L34.984,52.000 L33.177,48.308 L31.877,48.308 L31.877,52.000 L30.070,52.000 L30.070,42.744 L33.697,42.744 C34.616,42.744 35.346,43.017 35.887,43.563 C36.429,44.109 36.700,44.781 36.700,45.578 C36.700,46.193 36.540,46.709 36.219,47.125 C35.898,47.541 35.495,47.836 35.010,48.009 ZM34.529,44.694 C34.286,44.469 33.970,44.356 33.580,44.356 L31.877,44.356 L31.877,46.800 L33.580,46.800 C33.970,46.800 34.286,46.687 34.529,46.462 C34.772,46.237 34.893,45.942 34.893,45.578 C34.893,45.214 34.772,44.919 34.529,44.694 ZM26.794,50.362 L23.505,50.362 L22.946,52.000 L21.061,52.000 L24.428,42.744 L25.845,42.744 L29.225,52.000 L27.340,52.000 L26.794,50.362 ZM25.182,45.474 L24.012,48.841 L26.313,48.841 L25.182,45.474 ZM17.993,52.000 L16.186,48.308 L14.886,48.308 L14.886,52.000 L13.079,52.000 L13.079,42.744 L16.706,42.744 C17.625,42.744 18.355,43.017 18.897,43.563 C19.438,44.109 19.709,44.781 19.709,45.578 C19.709,46.193 19.549,46.709 19.228,47.125 C18.907,47.541 18.504,47.836 18.019,48.009 L20.086,52.000 L17.993,52.000 ZM17.538,44.694 C17.295,44.469 16.979,44.356 16.589,44.356 L14.886,44.356 L14.886,46.800 L16.589,46.800 C16.979,46.800 17.295,46.687 17.538,46.462 C17.781,46.237 17.902,45.942 17.902,45.578 C17.902,45.214 17.781,44.919 17.538,44.694 Z"/>
		  </g>
	</symbol>

	<symbol id="zip" viewBox="0 0 50 60">
		<title>zip</title>
		  <g>
		    <rect x="1" y="1" width="48" height="58" rx="2" ry="2" stroke="#00a8ff" stroke-width="2px" fill="none"/>
		    <path d="M17.000,11.999 C17.552,11.999 18.000,12.447 18.000,13.000 L18.000,31.999 C18.000,32.552 17.552,31.999 17.000,31.999 C16.448,31.999 16.000,32.552 16.000,31.999 L16.000,13.000 C16.000,12.447 16.448,11.999 17.000,11.999 Z"/>
		    <path d="M22.000,17.000 C22.552,17.000 23.000,17.364 23.000,17.812 L23.000,29.562 C23.000,30.011 22.552,31.999 22.000,31.999 C21.448,31.999 21.000,30.011 21.000,29.562 L21.000,17.812 C21.000,17.364 21.448,17.000 22.000,17.000 Z"/>
		    <path d="M29.000,17.000 C29.552,17.000 30.000,17.364 30.000,17.812 L30.000,26.561 C30.000,27.011 29.552,26.999 29.000,26.999 C28.448,26.999 28.000,27.011 28.000,26.561 L28.000,17.812 C28.000,17.364 28.448,17.000 29.000,17.000 Z"/>
		    <path d="M34.000,11.999 C34.552,11.999 35.000,12.447 35.000,13.000 L35.000,29.000 C35.000,29.551 34.552,31.999 34.000,31.999 C33.448,31.999 33.000,29.551 33.000,29.000 L33.000,13.000 C33.000,12.447 33.448,11.999 34.000,11.999 Z"/>
		    <path d="M17.000,11.999 L34.000,11.999 C34.552,11.999 35.000,12.447 35.000,12.999 C35.000,13.552 34.552,13.999 34.000,13.999 L17.000,13.999 C16.448,13.999 16.000,13.552 16.000,12.999 C16.000,12.447 16.448,11.999 17.000,11.999 Z"/>
		    <path d="M22.000,30.000 L34.000,30.000 C34.552,30.000 35.000,30.447 35.000,30.999 C35.000,31.552 34.552,31.999 34.000,31.999 L22.000,31.999 C21.448,31.999 21.000,31.552 21.000,30.999 C21.000,30.447 21.448,30.000 22.000,30.000 Z"/>
		    <path d="M27.000,24.999 L29.000,24.999 C29.552,24.999 30.000,25.447 30.000,25.999 C30.000,26.552 29.552,26.999 29.000,26.999 L27.000,26.999 C26.448,26.999 26.000,26.552 26.000,25.999 C26.000,25.447 26.448,24.999 27.000,24.999 Z"/>
		    <path d="M22.000,17.000 L29.000,17.000 C29.552,17.000 30.000,17.447 30.000,17.999 C30.000,18.552 29.552,18.999 29.000,18.999 L22.000,18.999 C21.448,18.999 21.000,18.552 21.000,17.999 C21.000,17.447 21.448,17.000 22.000,17.000 Z"/>
		    <path d="M32.898,47.684 C32.347,48.239 31.604,48.516 30.668,48.516 L28.887,48.516 L28.887,52.000 L27.080,52.000 L27.080,42.744 L30.668,42.744 C31.604,42.744 32.347,43.021 32.898,43.576 C33.448,44.131 33.723,44.815 33.723,45.630 C33.723,46.445 33.448,47.129 32.898,47.684 ZM31.552,44.707 C31.309,44.473 30.984,44.356 30.577,44.356 L28.887,44.356 L28.887,46.891 L30.577,46.891 C30.984,46.891 31.309,46.776 31.552,46.546 C31.795,46.317 31.916,46.011 31.916,45.630 C31.916,45.249 31.795,44.941 31.552,44.707 ZM23.076,42.744 L24.883,42.744 L24.883,52.000 L23.076,52.000 L23.076,42.744 ZM15.523,50.544 L19.475,44.356 L15.692,44.356 L15.692,42.744 L21.607,42.744 L21.607,44.174 L17.642,50.388 L21.607,50.388 L21.607,52.000 L15.523,52.000 L15.523,50.544 Z"/>
		  </g>
	</symbol>

	<symbol id="jpeg" viewBox="0 0 50 60">
		<title>jpeg</title>
		  <g>
		    <rect x="1" y="1" width="48" height="58" rx="2" ry="2" stroke="#00a8ff" stroke-width="2px" fill="none"/>
		    <circle cx="20.5" cy="15.5" r="2.5"/>
		    <path d="M18.784,23.215 C19.063,23.494 19.063,23.945 18.784,24.223 L14.204,28.785 C13.925,29.063 13.473,29.063 13.194,28.785 C12.914,28.507 12.914,28.054 13.194,27.778 L17.773,23.215 C18.053,22.937 18.505,22.937 18.784,23.215 Z"/>
		    <path d="M23.785,28.783 C23.506,29.063 23.055,29.063 22.777,28.783 L18.215,24.204 C17.937,23.926 17.937,23.472 18.215,23.193 C18.494,22.915 18.945,22.915 19.223,23.193 L23.785,27.773 C24.063,28.052 24.063,28.505 23.785,28.783 Z"/>
		    <path d="M29.101,17.466 C29.375,17.748 29.381,18.213 29.115,18.510 L21.878,26.508 C21.611,26.803 21.173,26.814 20.899,26.534 C20.625,26.252 20.619,25.785 20.885,25.491 L28.122,17.492 C28.389,17.197 28.827,17.186 29.101,17.466 Z"/>
		    <path d="M29.223,17.146 C29.503,16.907 29.928,16.943 30.173,17.227 L39.838,27.912 C40.083,28.195 40.056,28.617 39.777,28.856 C39.497,29.093 39.072,29.058 38.827,28.775 L29.162,18.090 C28.917,17.806 28.944,17.384 29.223,17.146 Z"/>
		    <circle cx="20.5" cy="15.5" r="2.5"/>
		    <path d="M18.784,23.215 C19.063,23.494 19.063,23.945 18.784,24.223 L14.204,28.785 C13.925,29.063 13.473,29.063 13.194,28.785 C12.914,28.507 12.914,28.054 13.194,27.778 L17.773,23.215 C18.053,22.937 18.505,22.937 18.784,23.215 Z"/>
		    <path d="M23.785,28.783 C23.506,29.063 23.055,29.063 22.777,28.783 L18.215,24.204 C17.937,23.926 17.937,23.472 18.215,23.193 C18.494,22.915 18.945,22.915 19.223,23.193 L23.785,27.773 C24.063,28.052 24.063,28.505 23.785,28.783 Z"/>
		    <path d="M29.101,17.466 C29.375,17.748 29.381,18.213 29.115,18.510 L21.878,26.508 C21.611,26.803 21.173,26.814 20.899,26.534 C20.625,26.252 20.619,25.785 20.885,25.491 L28.122,17.492 C28.389,17.197 28.827,17.186 29.101,17.466 Z"/>
		    <path d="M29.223,17.146 C29.503,16.907 29.928,16.943 30.173,17.227 L39.838,27.912 C40.083,28.195 40.056,28.617 39.777,28.856 C39.497,29.093 39.072,29.058 38.827,28.775 L29.162,18.090 C28.917,17.806 28.944,17.384 29.223,17.146 Z"/>
		    <path d="M36.157,48.373 L36.157,46.852 L39.654,46.852 L39.654,48.204 C39.654,48.889 39.589,49.443 39.459,49.868 C39.329,50.293 39.099,50.678 38.770,51.025 C38.103,51.727 37.232,52.078 36.157,52.078 C35.178,52.078 34.354,51.753 33.687,51.103 C33.262,50.678 33.000,50.212 32.900,49.705 C32.801,49.198 32.751,48.421 32.751,47.372 C32.751,46.323 32.801,45.545 32.900,45.038 C33.000,44.531 33.262,44.066 33.687,43.641 C34.354,42.991 35.178,42.666 36.157,42.666 C37.171,42.666 37.970,42.948 38.555,43.511 C39.140,44.074 39.502,44.781 39.641,45.630 L37.821,45.630 C37.613,44.729 37.058,44.278 36.157,44.278 C35.689,44.278 35.303,44.443 35.000,44.772 C34.827,44.971 34.710,45.240 34.649,45.578 C34.588,45.916 34.558,46.514 34.558,47.372 C34.558,48.239 34.588,48.841 34.649,49.179 C34.710,49.517 34.827,49.786 35.000,49.985 C35.295,50.306 35.680,50.466 36.157,50.466 C36.712,50.466 37.141,50.293 37.444,49.946 C37.721,49.634 37.860,49.222 37.860,48.711 L37.860,48.373 L36.157,48.373 ZM25.068,42.744 L31.165,42.744 L31.165,44.356 L26.875,44.356 L26.875,46.527 L30.528,46.527 L30.528,48.139 L26.875,48.139 L26.875,50.388 L31.165,50.388 L31.165,52.000 L25.068,52.000 L25.068,42.744 ZM20.661,48.516 L18.880,48.516 L18.880,52.000 L17.073,52.000 L17.073,42.744 L20.661,42.744 C21.597,42.744 22.340,43.021 22.891,43.576 C23.441,44.131 23.716,44.815 23.716,45.630 C23.716,46.445 23.441,47.129 22.891,47.684 C22.340,48.239 21.597,48.516 20.661,48.516 ZM21.545,44.707 C21.302,44.473 20.977,44.356 20.570,44.356 L18.880,44.356 L18.880,46.891 L20.570,46.891 C20.977,46.891 21.302,46.776 21.545,46.546 C21.788,46.317 21.909,46.011 21.909,45.630 C21.909,45.249 21.788,44.941 21.545,44.707 ZM11.418,52.078 C10.915,52.078 10.478,52.004 10.105,51.857 C9.732,51.710 9.377,51.467 9.039,51.129 L10.235,49.946 C10.582,50.293 10.976,50.466 11.418,50.466 C11.869,50.466 12.224,50.332 12.484,50.063 C12.744,49.794 12.874,49.400 12.874,48.880 L12.874,42.744 L14.681,42.744 L14.681,48.958 C14.681,49.937 14.365,50.702 13.732,51.252 C13.099,51.803 12.328,52.078 11.418,52.078 Z"/>
		  </g>
	</symbol>

	<symbol id="jpg" viewBox="0 0 50 60">
		<title>jpg</title>
		  <g>
		    <rect x="1" y="1" width="48" height="58" rx="2" ry="2" stroke="#00a8ff" stroke-width="2px" fill="none"/>
		    <circle cx="20.5" cy="15.5" r="2.5"/>
		    <path d="M18.784,23.215 C19.063,23.494 19.063,23.945 18.784,24.223 L14.204,28.785 C13.925,29.063 13.473,29.063 13.194,28.785 C12.914,28.507 12.914,28.054 13.194,27.778 L17.773,23.215 C18.053,22.937 18.505,22.937 18.784,23.215 Z"/>
		    <path d="M23.785,28.783 C23.506,29.063 23.055,29.063 22.777,28.783 L18.215,24.204 C17.937,23.926 17.937,23.472 18.215,23.193 C18.494,22.915 18.945,22.915 19.223,23.193 L23.785,27.773 C24.063,28.052 24.063,28.505 23.785,28.783 Z"/>
		    <path d="M29.101,17.466 C29.375,17.748 29.381,18.213 29.115,18.510 L21.878,26.508 C21.611,26.803 21.173,26.814 20.899,26.534 C20.625,26.252 20.619,25.785 20.885,25.491 L28.122,17.492 C28.389,17.197 28.827,17.186 29.101,17.466 Z"/>
		    <path d="M29.223,17.146 C29.503,16.907 29.928,16.943 30.173,17.227 L39.838,27.912 C40.083,28.195 40.056,28.617 39.777,28.856 C39.497,29.093 39.072,29.058 38.827,28.775 L29.162,18.090 C28.917,17.806 28.944,17.384 29.223,17.146 Z"/>
		    <circle cx="20.5" cy="15.5" r="2.5"/>
		    <path d="M18.784,23.215 C19.063,23.494 19.063,23.945 18.784,24.223 L14.204,28.785 C13.925,29.063 13.473,29.063 13.194,28.785 C12.914,28.507 12.914,28.054 13.194,27.778 L17.773,23.215 C18.053,22.937 18.505,22.937 18.784,23.215 Z"/>
		    <path d="M23.785,28.783 C23.506,29.063 23.055,29.063 22.777,28.783 L18.215,24.204 C17.937,23.926 17.937,23.472 18.215,23.193 C18.494,22.915 18.945,22.915 19.223,23.193 L23.785,27.773 C24.063,28.052 24.063,28.505 23.785,28.783 Z"/>
		    <path d="M29.101,17.466 C29.375,17.748 29.381,18.213 29.115,18.510 L21.878,26.508 C21.611,26.803 21.173,26.814 20.899,26.534 C20.625,26.252 20.619,25.785 20.885,25.491 L28.122,17.492 C28.389,17.197 28.827,17.186 29.101,17.466 Z"/>
		    <path d="M29.223,17.146 C29.503,16.907 29.928,16.943 30.173,17.227 L39.838,27.912 C40.083,28.195 40.056,28.617 39.777,28.856 C39.497,29.093 39.072,29.058 38.827,28.775 L29.162,18.090 C28.917,17.806 28.944,17.384 29.223,17.146 Z"/>
		    <path d="M31.165,48.373 L31.165,46.852 L34.662,46.852 L34.662,48.204 C34.662,48.889 34.597,49.443 34.467,49.868 C34.337,50.293 34.107,50.678 33.778,51.025 C33.111,51.727 32.240,52.078 31.165,52.078 C30.186,52.078 29.362,51.753 28.695,51.103 C28.270,50.678 28.008,50.212 27.909,49.705 C27.809,49.198 27.759,48.421 27.759,47.372 C27.759,46.323 27.809,45.545 27.909,45.038 C28.008,44.531 28.270,44.066 28.695,43.641 C29.362,42.991 30.186,42.666 31.165,42.666 C32.179,42.666 32.979,42.948 33.564,43.511 C34.149,44.074 34.510,44.781 34.649,45.630 L32.829,45.630 C32.621,44.729 32.066,44.278 31.165,44.278 C30.697,44.278 30.311,44.443 30.008,44.772 C29.835,44.971 29.718,45.240 29.657,45.578 C29.596,45.916 29.566,46.514 29.566,47.372 C29.566,48.239 29.596,48.841 29.657,49.179 C29.718,49.517 29.835,49.786 30.008,49.985 C30.303,50.306 30.688,50.466 31.165,50.466 C31.720,50.466 32.149,50.293 32.452,49.946 C32.729,49.634 32.868,49.222 32.868,48.711 L32.868,48.373 L31.165,48.373 ZM23.664,48.516 L21.883,48.516 L21.883,52.000 L20.076,52.000 L20.076,42.744 L23.664,42.744 C24.600,42.744 25.343,43.021 25.894,43.576 C26.444,44.131 26.719,44.815 26.719,45.630 C26.719,46.445 26.444,47.129 25.894,47.684 C25.343,48.239 24.600,48.516 23.664,48.516 ZM24.548,44.707 C24.305,44.473 23.980,44.356 23.573,44.356 L21.883,44.356 L21.883,46.891 L23.573,46.891 C23.980,46.891 24.305,46.776 24.548,46.546 C24.791,46.317 24.912,46.011 24.912,45.630 C24.912,45.249 24.791,44.941 24.548,44.707 ZM14.421,52.078 C13.918,52.078 13.481,52.004 13.108,51.857 C12.735,51.710 12.380,51.467 12.042,51.129 L13.238,49.946 C13.585,50.293 13.979,50.466 14.421,50.466 C14.872,50.466 15.227,50.332 15.487,50.063 C15.747,49.794 15.877,49.400 15.877,48.880 L15.877,42.744 L17.684,42.744 L17.684,48.958 C17.684,49.937 17.368,50.702 16.735,51.252 C16.102,51.803 15.331,52.078 14.421,52.078 Z" />
		  </g>
	</symbol>

	<symbol id="png" viewBox="0 0 50 60">
		<title>png</title>
		  <g>
		    <rect x="1" y="1" width="48" height="58" rx="2" ry="2" stroke="#00a8ff" stroke-width="2px" fill="none"/>
		    <circle cx="20.5" cy="15.5" r="2.5"/>
		    <path d="M18.784,23.215 C19.063,23.494 19.063,23.945 18.784,24.223 L14.204,28.785 C13.925,29.063 13.473,29.063 13.194,28.785 C12.914,28.507 12.914,28.054 13.194,27.778 L17.773,23.215 C18.053,22.937 18.505,22.937 18.784,23.215 Z"/>
		    <path d="M23.785,28.783 C23.506,29.063 23.055,29.063 22.777,28.783 L18.215,24.204 C17.937,23.926 17.937,23.472 18.215,23.193 C18.494,22.915 18.945,22.915 19.223,23.193 L23.785,27.773 C24.063,28.052 24.063,28.505 23.785,28.783 Z"/>
		    <path d="M29.101,17.466 C29.375,17.748 29.381,18.213 29.115,18.510 L21.878,26.508 C21.611,26.803 21.173,26.814 20.899,26.534 C20.625,26.252 20.619,25.785 20.885,25.491 L28.122,17.492 C28.389,17.197 28.827,17.186 29.101,17.466 Z"/>
		    <path d="M29.223,17.146 C29.503,16.907 29.928,16.943 30.173,17.227 L39.838,27.912 C40.083,28.195 40.056,28.617 39.777,28.856 C39.497,29.093 39.072,29.058 38.827,28.775 L29.162,18.090 C28.917,17.806 28.944,17.384 29.223,17.146 Z"/>
		    <circle cx="20.5" cy="15.5" r="2.5"/>
		    <path d="M18.784,23.215 C19.063,23.494 19.063,23.945 18.784,24.223 L14.204,28.785 C13.925,29.063 13.473,29.063 13.194,28.785 C12.914,28.507 12.914,28.054 13.194,27.778 L17.773,23.215 C18.053,22.937 18.505,22.937 18.784,23.215 Z"/>
		    <path d="M23.785,28.783 C23.506,29.063 23.055,29.063 22.777,28.783 L18.215,24.204 C17.937,23.926 17.937,23.472 18.215,23.193 C18.494,22.915 18.945,22.915 19.223,23.193 L23.785,27.773 C24.063,28.052 24.063,28.505 23.785,28.783 Z"/>
		    <path d="M29.101,17.466 C29.375,17.748 29.381,18.213 29.115,18.510 L21.878,26.508 C21.611,26.803 21.173,26.814 20.899,26.534 C20.625,26.252 20.619,25.785 20.885,25.491 L28.122,17.492 C28.389,17.197 28.827,17.186 29.101,17.466 Z"/>
		    <path d="M29.223,17.146 C29.503,16.907 29.928,16.943 30.173,17.227 L39.838,27.912 C40.083,28.195 40.056,28.617 39.777,28.856 C39.497,29.093 39.072,29.058 38.827,28.775 L29.162,18.090 C28.917,17.806 28.944,17.384 29.223,17.146 Z"/>
		    <path d="M33.167,48.373 L33.167,46.852 L36.664,46.852 L36.664,48.204 C36.664,48.889 36.599,49.443 36.469,49.868 C36.339,50.293 36.109,50.678 35.780,51.025 C35.113,51.727 34.242,52.078 33.167,52.078 C32.188,52.078 31.364,51.753 30.697,51.103 C30.272,50.678 30.010,50.212 29.911,49.705 C29.811,49.198 29.761,48.421 29.761,47.372 C29.761,46.323 29.811,45.545 29.911,45.038 C30.010,44.531 30.272,44.066 30.697,43.641 C31.364,42.991 32.188,42.666 33.167,42.666 C34.181,42.666 34.981,42.948 35.566,43.511 C36.151,44.074 36.512,44.781 36.651,45.630 L34.831,45.630 C34.623,44.729 34.068,44.278 33.167,44.278 C32.699,44.278 32.313,44.443 32.010,44.772 C31.837,44.971 31.720,45.240 31.659,45.578 C31.598,45.916 31.568,46.514 31.568,47.372 C31.568,48.239 31.598,48.841 31.659,49.179 C31.720,49.517 31.837,49.786 32.010,49.985 C32.305,50.306 32.690,50.466 33.167,50.466 C33.722,50.466 34.151,50.293 34.454,49.946 C34.731,49.634 34.870,49.222 34.870,48.711 L34.870,48.373 L33.167,48.373 ZM22.884,46.319 L22.884,52.000 L21.077,52.000 L21.077,42.744 L22.689,42.744 L26.355,48.412 L26.355,42.744 L28.162,42.744 L28.162,52.000 L26.550,52.000 L22.884,46.319 ZM16.670,48.516 L14.889,48.516 L14.889,52.000 L13.082,52.000 L13.082,42.744 L16.670,42.744 C17.606,42.744 18.349,43.021 18.900,43.576 C19.450,44.131 19.725,44.815 19.725,45.630 C19.725,46.445 19.450,47.129 18.900,47.684 C18.349,48.239 17.606,48.516 16.670,48.516 ZM17.554,44.707 C17.311,44.473 16.986,44.356 16.579,44.356 L14.889,44.356 L14.889,46.891 L16.579,46.891 C16.986,46.891 17.311,46.776 17.554,46.546 C17.797,46.317 17.918,46.011 17.918,45.630 C17.918,45.249 17.797,44.941 17.554,44.707 Z"/>
		  </g>
	</symbol>

	<symbol id="gif" viewBox="0 0 50 60">
		<title>gif</title>
		  <g>
		    <rect x="1" y="1" width="48" height="58" rx="2" ry="2" stroke="#00a8ff" stroke-width="2px" fill="none"/>
		    <circle cx="20.5" cy="15.5" r="2.5" />
		    <path d="M18.784,23.215 C19.063,23.494 19.063,23.945 18.784,24.223 L14.204,28.785 C13.925,29.063 13.473,29.063 13.194,28.785 C12.914,28.507 12.914,28.054 13.194,27.778 L17.773,23.215 C18.053,22.937 18.505,22.937 18.784,23.215 Z"/>
		    <path d="M23.785,28.783 C23.506,29.063 23.055,29.063 22.777,28.783 L18.215,24.204 C17.937,23.926 17.937,23.472 18.215,23.193 C18.494,22.915 18.945,22.915 19.223,23.193 L23.785,27.773 C24.063,28.052 24.063,28.505 23.785,28.783 Z"/>
		    <path d="M29.101,17.466 C29.375,17.748 29.381,18.213 29.115,18.510 L21.878,26.508 C21.611,26.803 21.173,26.814 20.899,26.534 C20.625,26.252 20.619,25.785 20.885,25.491 L28.122,17.492 C28.389,17.197 28.827,17.186 29.101,17.466 Z"/>
		    <path d="M29.223,17.146 C29.503,16.907 29.928,16.943 30.173,17.227 L39.838,27.912 C40.083,28.195 40.056,28.617 39.777,28.856 C39.497,29.093 39.072,29.058 38.827,28.775 L29.162,18.090 C28.917,17.806 28.944,17.384 29.223,17.146 Z"/>
		    <circle cx="20.5" cy="15.5" r="2.5" />
		    <path d="M18.784,23.215 C19.063,23.494 19.063,23.945 18.784,24.223 L14.204,28.785 C13.925,29.063 13.473,29.063 13.194,28.785 C12.914,28.507 12.914,28.054 13.194,27.778 L17.773,23.215 C18.053,22.937 18.505,22.937 18.784,23.215 Z"/>
		    <path d="M23.785,28.783 C23.506,29.063 23.055,29.063 22.777,28.783 L18.215,24.204 C17.937,23.926 17.937,23.472 18.215,23.193 C18.494,22.915 18.945,22.915 19.223,23.193 L23.785,27.773 C24.063,28.052 24.063,28.505 23.785,28.783 Z"/>
		    <path d="M29.101,17.466 C29.375,17.748 29.381,18.213 29.115,18.510 L21.878,26.508 C21.611,26.803 21.173,26.814 20.899,26.534 C20.625,26.252 20.619,25.785 20.885,25.491 L28.122,17.492 C28.389,17.197 28.827,17.186 29.101,17.466 Z"/>
		    <path d="M29.223,17.146 C29.503,16.907 29.928,16.943 30.173,17.227 L39.838,27.912 C40.083,28.195 40.056,28.617 39.777,28.856 C39.497,29.093 39.072,29.058 38.827,28.775 L29.162,18.090 C28.917,17.806 28.944,17.384 29.223,17.146 Z"/>
		    <path d="M29.891,44.356 L29.891,46.631 L33.544,46.631 L33.544,48.243 L29.891,48.243 L29.891,52.000 L28.084,52.000 L28.084,42.744 L34.181,42.744 L34.181,44.356 L29.891,44.356 ZM24.080,42.744 L25.887,42.744 L25.887,52.000 L24.080,52.000 L24.080,42.744 ZM21.792,51.025 C21.125,51.727 20.254,52.078 19.179,52.078 C18.200,52.078 17.376,51.753 16.709,51.103 C16.284,50.678 16.022,50.212 15.923,49.705 C15.823,49.198 15.773,48.421 15.773,47.372 C15.773,46.323 15.823,45.545 15.923,45.038 C16.022,44.531 16.284,44.066 16.709,43.641 C17.376,42.991 18.200,42.666 19.179,42.666 C20.193,42.666 20.993,42.948 21.578,43.511 C22.163,44.074 22.524,44.781 22.663,45.630 L20.843,45.630 C20.635,44.729 20.080,44.278 19.179,44.278 C18.711,44.278 18.325,44.443 18.022,44.772 C17.849,44.971 17.732,45.240 17.671,45.578 C17.610,45.916 17.580,46.514 17.580,47.372 C17.580,48.239 17.610,48.841 17.671,49.179 C17.732,49.517 17.849,49.786 18.022,49.985 C18.317,50.306 18.702,50.466 19.179,50.466 C19.734,50.466 20.163,50.293 20.466,49.946 C20.743,49.634 20.882,49.222 20.882,48.711 L20.882,48.373 L19.179,48.373 L19.179,46.852 L22.676,46.852 L22.676,48.204 C22.676,48.889 22.611,49.443 22.481,49.868 C22.351,50.293 22.121,50.678 21.792,51.025 Z"/>
		  </g>
	</symbol>

	<symbol id="tiff" viewBox="0 0 50 60">
		<title>tiff</title>
		  <g>
		    <rect x="1" y="1" width="48" height="58" rx="2" ry="2" stroke="#00a8ff" stroke-width="2px" fill="none"/>
		    <circle cx="20.5" cy="15.5" r="2.5"/>
		    <path d="M18.784,23.215 C19.063,23.494 19.063,23.945 18.784,24.223 L14.204,28.785 C13.925,29.063 13.473,29.063 13.194,28.785 C12.914,28.507 12.914,28.054 13.194,27.778 L17.773,23.215 C18.053,22.937 18.505,22.937 18.784,23.215 Z"/>
		    <path d="M23.785,28.783 C23.506,29.063 23.055,29.063 22.777,28.783 L18.215,24.204 C17.937,23.926 17.937,23.472 18.215,23.193 C18.494,22.915 18.945,22.915 19.223,23.193 L23.785,27.773 C24.063,28.052 24.063,28.505 23.785,28.783 Z"/>
		    <path d="M29.101,17.466 C29.375,17.748 29.381,18.213 29.115,18.510 L21.878,26.508 C21.611,26.803 21.173,26.814 20.899,26.534 C20.625,26.252 20.619,25.785 20.885,25.491 L28.122,17.492 C28.389,17.197 28.827,17.186 29.101,17.466 Z"/>
		    <path d="M29.223,17.146 C29.503,16.907 29.928,16.943 30.173,17.227 L39.838,27.912 C40.083,28.195 40.056,28.617 39.777,28.856 C39.497,29.093 39.072,29.058 38.827,28.775 L29.162,18.090 C28.917,17.806 28.944,17.384 29.223,17.146 Z"/>
		    <circle cx="20.5" cy="15.5" r="2.5"/>
		    <path d="M18.784,23.215 C19.063,23.494 19.063,23.945 18.784,24.223 L14.204,28.785 C13.925,29.063 13.473,29.063 13.194,28.785 C12.914,28.507 12.914,28.054 13.194,27.778 L17.773,23.215 C18.053,22.937 18.505,22.937 18.784,23.215 Z"/>
		    <path d="M23.785,28.783 C23.506,29.063 23.055,29.063 22.777,28.783 L18.215,24.204 C17.937,23.926 17.937,23.472 18.215,23.193 C18.494,22.915 18.945,22.915 19.223,23.193 L23.785,27.773 C24.063,28.052 24.063,28.505 23.785,28.783 Z"/>
		    <path d="M29.101,17.466 C29.375,17.748 29.381,18.213 29.115,18.510 L21.878,26.508 C21.611,26.803 21.173,26.814 20.899,26.534 C20.625,26.252 20.619,25.785 20.885,25.491 L28.122,17.492 C28.389,17.197 28.827,17.186 29.101,17.466 Z"/>
		    <path d="M29.223,17.146 C29.503,16.907 29.928,16.943 30.173,17.227 L39.838,27.912 C40.083,28.195 40.056,28.617 39.777,28.856 C39.497,29.093 39.072,29.058 38.827,28.775 L29.162,18.090 C28.917,17.806 28.944,17.384 29.223,17.146 Z"/>
		    <path d="M33.882,44.356 L33.882,46.631 L37.535,46.631 L37.535,48.243 L33.882,48.243 L33.882,52.000 L32.075,52.000 L32.075,42.744 L38.172,42.744 L38.172,44.356 L33.882,44.356 ZM25.887,46.631 L29.540,46.631 L29.540,48.243 L25.887,48.243 L25.887,52.000 L24.080,52.000 L24.080,42.744 L30.177,42.744 L30.177,44.356 L25.887,44.356 L25.887,46.631 ZM20.076,42.744 L21.883,42.744 L21.883,52.000 L20.076,52.000 L20.076,42.744 ZM16.618,52.000 L14.811,52.000 L14.811,44.356 L12.393,44.356 L12.393,42.744 L19.036,42.744 L19.036,44.356 L16.618,44.356 L16.618,52.000 Z"/>
		  </g>
	</symbol>

	<symbol id="mp4" viewBox="0 0 50 60">
		<title>mp4</title>
		  <g>
		    <rect x="1" y="1" width="48" height="58" rx="2" ry="2" stroke="#00a8ff" stroke-width="2px" fill="none"/>
		    <path d="M37.804,50.687 L37.804,52.000 L36.179,52.000 L36.179,50.687 L32.396,50.687 L32.396,49.088 L35.568,42.744 L37.414,42.744 L34.242,49.088 L36.179,49.088 L36.179,47.359 L37.804,47.359 L37.804,49.088 L38.649,49.088 L38.649,50.687 L37.804,50.687 ZM28.665,48.516 L26.884,48.516 L26.884,52.000 L25.077,52.000 L25.077,42.744 L28.665,42.744 C29.601,42.744 30.344,43.021 30.895,43.576 C31.445,44.131 31.720,44.815 31.720,45.630 C31.720,46.445 31.445,47.129 30.895,47.684 C30.344,48.239 29.601,48.516 28.665,48.516 ZM29.549,44.707 C29.306,44.473 28.981,44.356 28.574,44.356 L26.884,44.356 L26.884,46.891 L28.574,46.891 C28.981,46.891 29.306,46.776 29.549,46.546 C29.792,46.317 29.913,46.011 29.913,45.630 C29.913,45.249 29.792,44.941 29.549,44.707 ZM20.657,46.605 L18.889,50.115 L17.667,50.115 L15.886,46.605 L15.886,52.000 L14.079,52.000 L14.079,42.744 L15.860,42.744 L18.278,47.749 L20.683,42.744 L22.464,42.744 L22.464,52.000 L20.657,52.000 L20.657,46.605 Z"/>
   			<circle cx="26" cy="20" r="9" stroke="#00a8ff" stroke-width="2px" fill="none"/>
    		<path d="M23.000,16.000 L31.000,19.000 L31.000,20.016 L22.000,23.000 L22.000,16.000 Z"/>
		  </g>
	</symbol>

	<symbol id="mpeg" viewBox="0 0 50 60">
		<title>mpeg</title>
		  <g>
		    <rect x="1" y="1" width="48" height="58" rx="2" ry="2" stroke="#00a8ff" stroke-width="2px" fill="none"/>
   			<path d="M39.161,48.373 L39.161,46.852 L42.658,46.852 L42.658,48.204 C42.658,48.889 42.593,49.443 42.463,49.868 C42.333,50.293 42.103,50.678 41.774,51.025 C41.107,51.727 40.236,52.078 39.161,52.078 C38.182,52.078 37.358,51.753 36.691,51.103 C36.266,50.678 36.004,50.212 35.904,49.705 C35.805,49.198 35.755,48.421 35.755,47.372 C35.755,46.323 35.805,45.545 35.904,45.038 C36.004,44.531 36.266,44.066 36.691,43.641 C37.358,42.991 38.182,42.666 39.161,42.666 C40.175,42.666 40.974,42.948 41.559,43.511 C42.144,44.074 42.506,44.781 42.645,45.630 L40.825,45.630 C40.617,44.729 40.062,44.278 39.161,44.278 C38.693,44.278 38.307,44.443 38.004,44.772 C37.831,44.971 37.714,45.240 37.653,45.578 C37.592,45.916 37.562,46.514 37.562,47.372 C37.562,48.239 37.592,48.841 37.653,49.179 C37.714,49.517 37.831,49.786 38.004,49.985 C38.299,50.306 38.684,50.466 39.161,50.466 C39.716,50.466 40.145,50.293 40.448,49.946 C40.725,49.634 40.864,49.222 40.864,48.711 L40.864,48.373 L39.161,48.373 ZM28.072,42.744 L34.169,42.744 L34.169,44.356 L29.879,44.356 L29.879,46.527 L33.532,46.527 L33.532,48.139 L29.879,48.139 L29.879,50.388 L34.169,50.388 L34.169,52.000 L28.072,52.000 L28.072,42.744 ZM23.665,48.516 L21.884,48.516 L21.884,52.000 L20.077,52.000 L20.077,42.744 L23.665,42.744 C24.601,42.744 25.344,43.021 25.895,43.576 C26.445,44.131 26.720,44.815 26.720,45.630 C26.720,46.445 26.445,47.129 25.895,47.684 C25.344,48.239 24.601,48.516 23.665,48.516 ZM24.549,44.707 C24.306,44.473 23.981,44.356 23.574,44.356 L21.884,44.356 L21.884,46.891 L23.574,46.891 C23.981,46.891 24.306,46.776 24.549,46.546 C24.792,46.317 24.913,46.011 24.913,45.630 C24.913,45.249 24.792,44.941 24.549,44.707 ZM15.657,46.605 L13.889,50.115 L12.667,50.115 L10.886,46.605 L10.886,52.000 L9.079,52.000 L9.079,42.744 L10.860,42.744 L13.278,47.749 L15.683,42.744 L17.464,42.744 L17.464,52.000 L15.657,52.000 L15.657,46.605 Z"/>
   			<circle cx="26" cy="20" r="9" stroke="#00a8ff" stroke-width="2px" fill="none"/>
    		<path d="M23.000,16.000 L31.000,19.000 L31.000,20.016 L22.000,23.000 L22.000,16.000 Z"/>
		  </g>
	</symbol>

	<symbol id="mpeg4" viewBox="0 0 50 60">
		<title>mpeg4</title>
		  <g>
		    <rect x="1" y="1" width="48" height="58" rx="2" ry="2" stroke="#00a8ff" stroke-width="2px" fill="none"/>
    		<path d="M45.794,50.687 L45.794,52.000 L44.169,52.000 L44.169,50.687 L40.386,50.687 L40.386,49.088 L43.558,42.744 L45.404,42.744 L42.232,49.088 L44.169,49.088 L44.169,47.359 L45.794,47.359 L45.794,49.088 L46.639,49.088 L46.639,50.687 L45.794,50.687 ZM38.774,51.025 C38.107,51.727 37.236,52.078 36.161,52.078 C35.182,52.078 34.358,51.753 33.691,51.103 C33.266,50.678 33.004,50.212 32.904,49.705 C32.805,49.198 32.755,48.421 32.755,47.372 C32.755,46.323 32.805,45.545 32.904,45.038 C33.004,44.531 33.266,44.066 33.691,43.641 C34.358,42.991 35.182,42.666 36.161,42.666 C37.175,42.666 37.974,42.948 38.559,43.511 C39.144,44.074 39.506,44.781 39.645,45.630 L37.825,45.630 C37.617,44.729 37.062,44.278 36.161,44.278 C35.693,44.278 35.307,44.443 35.004,44.772 C34.831,44.971 34.714,45.240 34.653,45.578 C34.592,45.916 34.562,46.514 34.562,47.372 C34.562,48.239 34.592,48.841 34.653,49.179 C34.714,49.517 34.831,49.786 35.004,49.985 C35.299,50.306 35.684,50.466 36.161,50.466 C36.716,50.466 37.145,50.293 37.448,49.946 C37.725,49.634 37.864,49.222 37.864,48.711 L37.864,48.373 L36.161,48.373 L36.161,46.852 L39.658,46.852 L39.658,48.204 C39.658,48.889 39.593,49.443 39.463,49.868 C39.333,50.293 39.103,50.678 38.774,51.025 ZM25.072,42.744 L31.169,42.744 L31.169,44.356 L26.879,44.356 L26.879,46.527 L30.532,46.527 L30.532,48.139 L26.879,48.139 L26.879,50.388 L31.169,50.388 L31.169,52.000 L25.072,52.000 L25.072,42.744 ZM20.665,48.516 L18.884,48.516 L18.884,52.000 L17.077,52.000 L17.077,42.744 L20.665,42.744 C21.601,42.744 22.344,43.021 22.895,43.576 C23.445,44.131 23.720,44.815 23.720,45.630 C23.720,46.445 23.445,47.129 22.895,47.684 C22.344,48.239 21.601,48.516 20.665,48.516 ZM21.549,44.707 C21.306,44.473 20.981,44.356 20.574,44.356 L18.884,44.356 L18.884,46.891 L20.574,46.891 C20.981,46.891 21.306,46.776 21.549,46.546 C21.792,46.317 21.913,46.011 21.913,45.630 C21.913,45.249 21.792,44.941 21.549,44.707 ZM12.657,46.605 L10.889,50.115 L9.667,50.115 L7.886,46.605 L7.886,52.000 L6.079,52.000 L6.079,42.744 L7.860,42.744 L10.278,47.749 L12.683,42.744 L14.464,42.744 L14.464,52.000 L12.657,52.000 L12.657,46.605 Z"/>
   			<circle cx="26" cy="20" r="9" stroke="#00a8ff" stroke-width="2px" fill="none"/>
    		<path d="M23.000,16.000 L31.000,19.000 L31.000,20.016 L22.000,23.000 L22.000,16.000 Z"/>
		  </g>
	</symbol>

	<symbol id="flv" viewBox="0 0 50 60">
		<title>flv</title>
		  <g>
		    <rect x="1" y="1" width="48" height="58" rx="2" ry="2" stroke="#00a8ff" stroke-width="2px" fill="none"/>
   			<path d="M33.526,52.000 L32.174,52.000 L29.119,42.744 L30.991,42.744 L32.850,48.776 L34.709,42.744 L36.594,42.744 L33.526,52.000 ZM23.074,42.744 L24.881,42.744 L24.881,50.388 L29.080,50.388 L29.080,52.000 L23.074,52.000 L23.074,42.744 ZM16.886,46.631 L20.539,46.631 L20.539,48.243 L16.886,48.243 L16.886,52.000 L15.079,52.000 L15.079,42.744 L21.176,42.744 L21.176,44.356 L16.886,44.356 L16.886,46.631 Z"/>
   			<circle cx="26" cy="20" r="9" stroke="#00a8ff" stroke-width="2px" fill="none"/>
    		<path d="M23.000,16.000 L31.000,19.000 L31.000,20.016 L22.000,23.000 L22.000,16.000 Z"/>
		  </g>
	</symbol>

	<symbol id="mp3" viewBox="0 0 50 60">
		<title>mp3</title>
		  <g>
		    <rect x="1" y="1" width="48" height="58" rx="2" ry="2" stroke="#00a8ff" stroke-width="2px" fill="none"/>
		    <path d="M37.428,49.322 C37.428,50.206 37.148,50.886 36.589,51.363 C36.030,51.840 35.331,52.078 34.490,52.078 C33.667,52.078 32.971,51.851 32.403,51.395 C31.836,50.941 31.548,50.258 31.539,49.348 L33.229,49.348 C33.238,49.747 33.361,50.048 33.599,50.252 C33.838,50.455 34.135,50.557 34.490,50.557 C34.863,50.557 35.164,50.444 35.393,50.219 C35.623,49.994 35.738,49.677 35.738,49.270 C35.738,48.880 35.623,48.570 35.393,48.340 C35.164,48.111 34.845,47.996 34.438,47.996 L34.191,47.996 L34.191,46.527 L34.438,46.527 C34.828,46.527 35.120,46.421 35.315,46.208 C35.510,45.996 35.608,45.717 35.608,45.370 C35.608,44.997 35.500,44.707 35.283,44.499 C35.066,44.291 34.798,44.187 34.477,44.187 C34.156,44.187 33.890,44.287 33.677,44.486 C33.465,44.685 33.350,44.958 33.333,45.305 L31.643,45.305 C31.660,44.499 31.938,43.858 32.475,43.381 C33.012,42.904 33.680,42.666 34.477,42.666 C35.300,42.666 35.976,42.913 36.505,43.407 C37.034,43.901 37.298,44.538 37.298,45.318 C37.298,46.202 36.943,46.835 36.232,47.216 C37.029,47.641 37.428,48.343 37.428,49.322 ZM27.665,48.516 L25.884,48.516 L25.884,52.000 L24.077,52.000 L24.077,42.744 L27.665,42.744 C28.601,42.744 29.344,43.021 29.895,43.576 C30.445,44.131 30.720,44.815 30.720,45.630 C30.720,46.445 30.445,47.129 29.895,47.684 C29.344,48.239 28.601,48.516 27.665,48.516 ZM28.549,44.707 C28.306,44.473 27.981,44.356 27.574,44.356 L25.884,44.356 L25.884,46.891 L27.574,46.891 C27.981,46.891 28.306,46.776 28.549,46.546 C28.792,46.317 28.913,46.011 28.913,45.630 C28.913,45.249 28.792,44.941 28.549,44.707 ZM19.657,46.605 L17.889,50.115 L16.667,50.115 L14.886,46.605 L14.886,52.000 L13.079,52.000 L13.079,42.744 L14.860,42.744 L17.278,47.749 L19.683,42.744 L21.464,42.744 L21.464,52.000 L19.657,52.000 L19.657,46.605 Z"/>
		    <rect x="31" y="12" width="2" height="12"/>
		    <rect x="21" y="14" width="2" height="14"/>
		    <path d="M31.521,10.264 L32.026,12.200 L21.479,14.735 L20.974,12.801 L31.521,10.264 Z"/>
		    <ellipse cx="20.5" cy="29" rx="2.5" ry="2"/>
		    <ellipse cx="30.5" cy="25" rx="2.5" ry="2"/>
		  </g>
	</symbol>

	<symbol id="ppt" viewBox="0 0 50 60">
		<title>ppt</title>
		  <g>
		  	<rect x="1" y="1" width="48" height="58" rx="2" ry="2" stroke="#00a8ff" stroke-width="2px" fill="none"/>
		    <path d="M32.540,44.356 L32.540,52.000 L30.733,52.000 L30.733,44.356 L28.315,44.356 L28.315,42.744 L34.958,42.744 L34.958,44.356 L32.540,44.356 ZM24.662,48.516 L22.881,48.516 L22.881,52.000 L21.074,52.000 L21.074,42.744 L24.662,42.744 C25.598,42.744 26.341,43.021 26.891,43.576 C27.442,44.131 27.717,44.815 27.717,45.630 C27.717,46.445 27.442,47.129 26.891,47.684 C26.341,48.239 25.598,48.516 24.662,48.516 ZM25.546,44.707 C25.303,44.473 24.978,44.356 24.571,44.356 L22.881,44.356 L22.881,46.891 L24.571,46.891 C24.978,46.891 25.303,46.776 25.546,46.546 C25.789,46.317 25.910,46.011 25.910,45.630 C25.910,45.249 25.789,44.941 25.546,44.707 ZM16.667,48.516 L14.886,48.516 L14.886,52.000 L13.079,52.000 L13.079,42.744 L16.667,42.744 C17.603,42.744 18.346,43.021 18.897,43.576 C19.447,44.131 19.722,44.815 19.722,45.630 C19.722,46.445 19.447,47.129 18.897,47.684 C18.346,48.239 17.603,48.516 16.667,48.516 ZM17.551,44.707 C17.308,44.473 16.983,44.356 16.576,44.356 L14.886,44.356 L14.886,46.891 L16.576,46.891 C16.983,46.891 17.308,46.776 17.551,46.546 C17.794,46.317 17.915,46.011 17.915,45.630 C17.915,45.249 17.794,44.941 17.551,44.707 Z"/>
		    <circle cx="25" cy="20" r="9" stroke="#00a8ff" stroke-width="2px" fill="none"/>
		    <rect x="24" y="11" width="2" height="10"/>
		    <rect x="25" y="19" width="10" height="2"/>
		  </g>
	</symbol>

	<symbol id="pptx" viewBox="0 0 50 60">
		<title>pptx</title>
		  <g>
		  	<rect x="1" y="1" width="48" height="58" rx="2" ry="2" stroke="#00a8ff" stroke-width="2px" fill="none"/>
    		<path d="M38.693,52.000 L36.626,52.000 L34.832,48.776 L33.051,52.000 L30.984,52.000 L33.857,47.255 L31.166,42.744 L33.220,42.744 L34.832,45.734 L36.457,42.744 L38.498,42.744 L35.807,47.255 L38.693,52.000 ZM28.540,52.000 L26.733,52.000 L26.733,44.356 L24.315,44.356 L24.315,42.744 L30.958,42.744 L30.958,44.356 L28.540,44.356 L28.540,52.000 ZM20.662,48.516 L18.881,48.516 L18.881,52.000 L17.074,52.000 L17.074,42.744 L20.662,42.744 C21.598,42.744 22.341,43.021 22.891,43.576 C23.442,44.131 23.717,44.815 23.717,45.630 C23.717,46.445 23.442,47.129 22.891,47.684 C22.341,48.239 21.598,48.516 20.662,48.516 ZM21.546,44.707 C21.303,44.473 20.978,44.356 20.571,44.356 L18.881,44.356 L18.881,46.891 L20.571,46.891 C20.978,46.891 21.303,46.776 21.546,46.546 C21.789,46.317 21.910,46.011 21.910,45.630 C21.910,45.249 21.789,44.941 21.546,44.707 ZM12.667,48.516 L10.886,48.516 L10.886,52.000 L9.079,52.000 L9.079,42.744 L12.667,42.744 C13.603,42.744 14.346,43.021 14.897,43.576 C15.447,44.131 15.722,44.815 15.722,45.630 C15.722,46.445 15.447,47.129 14.897,47.684 C14.346,48.239 13.603,48.516 12.667,48.516 ZM13.551,44.707 C13.308,44.473 12.983,44.356 12.576,44.356 L10.886,44.356 L10.886,46.891 L12.576,46.891 C12.983,46.891 13.308,46.776 13.551,46.546 C13.794,46.317 13.915,46.011 13.915,45.630 C13.915,45.249 13.794,44.941 13.551,44.707 Z"/>
		    <circle cx="25" cy="20" r="9" stroke="#00a8ff" stroke-width="2px" fill="none"/>
		    <rect x="24" y="11" width="2" height="10"/>
		    <rect x="25" y="19" width="10" height="2"/>
		  </g>
	</symbol>

	<symbol id="mpp" viewBox="0 0 50 60">
		<title>mpp</title>
		  <g>
		    <rect x="1" y="1" width="48" height="58" rx="2" ry="2" stroke="#00a8ff" stroke-width="2px" fill="none"/>
		    <path d="M18.000,11.999 C18.552,11.999 19.000,12.448 19.000,13.000 L19.000,32.000 C19.000,32.552 18.552,33.000 18.000,33.000 C17.448,33.000 17.000,32.552 17.000,32.000 L17.000,13.000 C17.000,12.448 17.448,11.999 18.000,11.999 Z"/>
		    <path d="M14.000,16.000 L33.000,16.000 C33.552,16.000 34.000,16.447 34.000,17.000 C34.000,17.552 33.552,17.999 33.000,17.999 L14.000,17.999 C13.448,17.999 13.000,17.552 13.000,17.000 C13.000,16.447 13.448,16.000 14.000,16.000 Z"/>
    		<path d="M35.889,47.684 C35.339,48.239 34.596,48.516 33.660,48.516 L31.879,48.516 L31.879,52.000 L30.072,52.000 L30.072,42.744 L33.660,42.744 C34.596,42.744 35.339,43.021 35.889,43.576 C36.440,44.131 36.715,44.815 36.715,45.630 C36.715,46.445 36.440,47.129 35.889,47.684 ZM34.544,44.707 C34.301,44.473 33.976,44.356 33.569,44.356 L31.879,44.356 L31.879,46.891 L33.569,46.891 C33.976,46.891 34.301,46.776 34.544,46.546 C34.787,46.317 34.908,46.011 34.908,45.630 C34.908,45.249 34.787,44.941 34.544,44.707 ZM25.665,48.516 L23.884,48.516 L23.884,52.000 L22.077,52.000 L22.077,42.744 L25.665,42.744 C26.601,42.744 27.344,43.021 27.895,43.576 C28.445,44.131 28.720,44.815 28.720,45.630 C28.720,46.445 28.445,47.129 27.895,47.684 C27.344,48.239 26.601,48.516 25.665,48.516 ZM26.549,44.707 C26.306,44.473 25.981,44.356 25.574,44.356 L23.884,44.356 L23.884,46.891 L25.574,46.891 C25.981,46.891 26.306,46.776 26.549,46.546 C26.792,46.317 26.913,46.011 26.913,45.630 C26.913,45.249 26.792,44.941 26.549,44.707 ZM17.657,46.605 L15.889,50.115 L14.667,50.115 L12.886,46.605 L12.886,52.000 L11.079,52.000 L11.079,42.744 L12.860,42.744 L15.278,47.749 L17.683,42.744 L19.464,42.744 L19.464,52.000 L17.657,52.000 L17.657,46.605 Z"/>
		  </g>
	</symbol>

    <symbol id="link" viewBox="0 0 50 60">
        <title>link</title>
        <g>
            <rect class="fill fill--none stroke stroke--thick" fill="none" stroke="#00a8ff" stroke-width="2" x="1" y="1" width="48" height="58" rx="2" ry="2"/>
            <path class="fill fill--none stroke stroke--thick" fill="none" stroke="#00a8ff" stroke-width="2" d="M12.388,27.033l6.739-6.746a1.4,1.4,0,0,1,1.979.053L24.661,23.9a1.4,1.4,0,0,1,.053,1.98l-6.739,6.746A1.4,1.4,0,0,1,16,32.572l-3.555-3.559A1.4,1.4,0,0,1,12.388,27.033Z"/>
            <path class="fill fill--none stroke stroke--thick" fill="none" stroke="#00a8ff" stroke-width="2" d="M23.28,16.129l6.739-6.745A1.4,1.4,0,0,1,32,9.437L35.552,13a1.4,1.4,0,0,1,.053,1.98l-6.739,6.746a1.4,1.4,0,0,1-1.978-.053l-3.555-3.559A1.4,1.4,0,0,1,23.28,16.129Z"/>
            <path class="fill fill--blue" fill="#00a8ff" d="M21.921,21.93l3.34-3.343,1.51,1.511-3.34,3.343Z"/>
            <path class="fill fill--blue" fill="#00a8ff" d="M17.085,50.388h-4.2V42.744H11.079V52h6.006V50.388Zm3.8-7.644H19.074V52h1.807V42.744Zm9.282,0H28.356v5.668L24.69,42.744H23.078V52h1.807V46.319L28.551,52h1.612V42.744Zm6.11,3.679,3.068-3.679h-2.2l-3.263,4.03v-4.03H32.074V52h1.807V49.218l1.2-1.43L37.456,52h2.106Z"/>
        </g>
    </symbol>

	<symbol id="threeDots" viewBox="0 0 15 3">
		<title>Многоточие</title>
		<path d="M 15,1.5 A 1.5,1.5 0 0 1 13.5,3 1.5,1.5 0 0 1 12,1.5 1.5,1.5 0 0 1 13.5,0 1.5,1.5 0 0 1 15,1.5 Z M 7.5,3 C 6.67,3 6,2.33 6,1.5 6,0.67 6.67,0 7.5,0 8.33,0 9,0.67 9,1.5 9,2.33 8.33,3 7.5,3 Z m -6,0 C 0.67,3 0,2.33 0,1.5 0,0.67 0.67,0 1.5,0 2.33,0 3,0.67 3,1.5 3,2.33 2.33,3 1.5,3 Z" />
	</symbol>

	<symbol id="play" viewBox="0 0 4 7">
		<title>плей</title>
		<path d="M 0 0.01C 0 0.01 3.99 3.5 3.99 3.5 3.99 3.5 0 6.99 0 6.99"  />
	</symbol>

	<symbol id="close" viewBox="0 0 28 28">
		<title>Закрыть</title>
		<path d="M 28,2.83 25.17,0 14,11.17 2.83,0 0,2.83 11.17,14 0,25.17 2.83,28 14,16.83 25.17,28 28,25.17 16.83,14 Z"  />
	</symbol>

	<symbol id="playArrow" viewBox="0 0 6 8">
		<title>Кнопка плей в виде стрелочки</title>
		<path d="M 1.18 1.68C 0.81 1.27 0.84 0.63 1.24 0.26 1.65-0.11 2.29-0.08 2.66 0.33 2.66 0.33 6 4.01 6 4.01 6 4.01 4.52 5.35 4.52 5.35 4.52 5.35 1.18 1.68 1.18 1.68M 4.52 2.66C 4.52 2.66 6 4.01 6 4.01 6 4.01 3.03 7.27 3.03 7.27 3.03 7.27 2.66 7.68 2.66 7.68 2.29 8.09 1.65 8.12 1.24 7.75 0.84 7.38 0.81 6.75 1.18 6.34 1.18 6.34 1.55 5.93 1.55 5.93 1.55 5.93 4.52 2.66 4.52 2.66M 4.52 5.35C 4.52 5.35 6 4.01 6 4.01 6 4.01 6 4.01 6 4.01 6 4.01 4.52 5.35 4.52 5.35 4.52 5.35 4.52 5.35 4.52 5.35ZM 6 4.01C 6 4.01 4.52 2.66 4.52 2.66 4.52 2.66 6 4.01 6 4.01 6 4.01 6 4.01 6 4.01 6 4.01 6 4.01 6 4.01Z" />
	</symbol>

	<symbol id="iphone" viewBox="0 0 12 16">
		<title>Айфон</title>
		<path fillRule="evenodd" d="M 11 16C 11 16 1 16 1 16 0.45 16-0 15.55-0 15-0 15-0 1-0 1-0 0.45 0.45-0 1-0 1-0 11-0 11-0 11.55-0 12 0.45 12 1 12 1 12 15 12 15 12 15.55 11.55 16 11 16ZM 5 14C 5 14 7 14 7 14 7 14 7 13 7 13 7 13 5 13 5 13 5 13 5 14 5 14ZM 10 11C 10 11 10 2 10 2 10 2 2 2 2 2 2 2 2 11 2 11 2 11 2 12 2 12 2 12 10 12 10 12 10 12 10 11 10 11Z"/>
	</symbol>

	<symbol id="letter" viewBox="0 0 16 12">
		<title>Письмо</title>
		<path d="M 15 12C 15 12 1 12 1 12 0.45 12 0 11.55 0 11 0 11 0 1 0 1 0 0.45 0.45 0 1 0 1 0 15 0 15 0 15.55 0 16 0.45 16 1 16 1 16 11 16 11 16 11.55 15.55 12 15 12ZM 3 2C 3 2 8 6 8 6 8 6 13 2 13 2 13 2 3 2 3 2ZM 14 3C 14 3 8 8 8 8 8 8 2 3 2 3 2 3 2 10 2 10 2 10 14 10 14 10 14 10 14 3 14 3Z" />
	</symbol>


	<symbol id="config" viewBox="0 0 16 16">
		<title>Шестеренка</title>
		<path d="M16.002,7.999 C16.002,7.404 15.574,6.770 15.045,6.582 C14.516,6.395 14.003,5.937 13.855,5.576 C13.705,5.214 13.744,4.526 13.985,4.019 C14.226,3.513 14.080,2.761 13.659,2.340 C13.238,1.919 12.486,1.773 11.979,2.014 C11.473,2.255 10.785,2.294 10.425,2.145 C10.065,1.996 9.606,1.483 9.418,0.954 C9.230,0.426 8.595,-0.003 8.000,-0.003 C7.404,-0.003 6.769,0.426 6.581,0.954 C6.393,1.483 5.934,1.996 5.574,2.145 C5.213,2.294 4.526,2.255 4.020,2.014 C3.513,1.773 2.761,1.919 2.340,2.340 C1.919,2.761 1.773,3.513 2.014,4.019 C2.255,4.527 2.293,5.214 2.144,5.575 C1.994,5.936 1.483,6.395 0.954,6.582 C0.425,6.770 -0.003,7.404 -0.003,7.999 C-0.003,8.595 0.425,9.230 0.954,9.418 C1.483,9.606 1.995,10.065 2.144,10.426 C2.294,10.786 2.255,11.473 2.014,11.979 C1.773,12.486 1.919,13.238 2.340,13.659 C2.761,14.080 3.513,14.226 4.020,13.985 C4.527,13.744 5.213,13.705 5.574,13.855 C5.935,14.004 6.393,14.519 6.581,15.046 C6.769,15.574 7.404,16.002 8.000,16.002 C8.595,16.002 9.230,15.574 9.418,15.046 C9.606,14.519 10.064,14.004 10.424,13.854 C10.785,13.704 11.473,13.744 11.979,13.985 C12.486,14.226 13.238,14.080 13.659,13.659 C14.080,13.238 14.226,12.486 13.985,11.979 C13.744,11.472 13.705,10.786 13.854,10.425 C14.003,10.065 14.516,9.606 15.045,9.418 C15.574,9.230 16.002,8.595 16.002,7.999 ZM8.000,10.936 C6.376,10.936 5.063,9.623 5.063,8.003 C5.063,6.379 6.376,5.066 8.000,5.066 C9.620,5.066 10.933,6.379 10.933,8.003 C10.933,9.623 9.620,10.936 8.000,10.936 Z"/>
	</symbol>

	<symbol id="video" viewBox="0 0 20 16">
		<title>Видео</title>
        <defs>
          <style>
            .clsv-2 {
              fill-rule: evenodd;
            }
          </style>
        </defs>
        <g>
          <rect y="6" width="2" height="10" class="clsv-1"/>
          <rect x="13" y="6" width="2" height="10" class="clsv-1"/>
          <rect x="18" y="7" width="2" height="8" class="clsv-1"/>
          <path d="M18.201,6.998 L19.002,7.799 L15.799,11.002 L14.998,10.201 L18.201,6.998 Z" class="clsv-2"/>
          <path d="M18.201,15.002 L19.002,14.201 L15.799,10.998 L14.998,11.799 L18.201,15.002 Z" class="clsv-2"/>
          <rect x="2" y="14" width="11" height="2" class="clsv-1"/>
          <rect x="2" y="6" width="11" height="2" class="clsv-1"/>
          <circle cx="4" cy="2" r="2" class="clsv-1"/>
          <circle cx="11" cy="2" r="2" class="clsv-1"/>
        </g>
	</symbol>

	<symbol id="photo" viewBox="0 0 26 18.812">
		<title>Фото</title>
        <defs>
          <style>
            .clsp-1, .clsp-2 {
              stroke-width: 2px;
              fill: none;
            }

            .clsp-2 {
              fill-rule: evenodd;
            }
          </style>
        </defs>
        <g>
          <circle cx="16" cy="4" r="3" class="clsp-1"/>
          <path d="M1.000,17.362 L8.000,8.000 L18.000,17.362 " class="clsp-2"/>
          <path d="M13.000,14.000 L18.000,10.000 L25.000,17.000 " class="clsp-2"/>
        </g>
	</symbol>

    <symbol id="star" viewBox="0 0 27 26">
        <title>Звезда</title>
        <polygon points="13.5,0 17.7,8.6 27,9.9 20.3,16.6 21.8,26 13.5,21.6 5.2,26 6.8,16.6 0,9.9 9.3,8.6"/>
    </symbol>

    <symbol id="calendar" viewBox="0 0 53 62">
        <title>Календарь</title>
        <g>
            <path class="fill fill--none stroke stroke--thick" fill="none" stroke="#00a8ff" stroke-width="2" d="M3,5H46a2,2,0,0,1,2,2V19a0,0,0,0,1,0,0H1a0,0,0,0,1,0,0V7A2,2,0,0,1,3,5Z"/>
            <rect class="fill fill--white stroke stroke--thick" fill="#fff" stroke="#00a8ff" stroke-width="2" x="36" y="1" width="6" height="8" rx="1" ry="1"/>
            <path class="fill fill--none stroke stroke--thick" fill="none" stroke="#00a8ff" stroke-width="2" d="M1,19H48a0,0,0,0,1,0,0V55a2,2,0,0,1-2,2H3a2,2,0,0,1-2-2V19A0,0,0,0,1,1,19Z"/>
            <rect class="fill fill--white stroke stroke--thick" fill="#fff" stroke="#00a8ff" stroke-width="2" x="7" y="1" width="6" height="8" rx="1" ry="1"/>
            <rect class="fill fill--none stroke stroke--thick" fill="none" stroke="#00a8ff" stroke-width="2" x="19" y="27.09" width="11" height="11"/>
            <rect class="fill fill--none stroke stroke--thick" fill="none" stroke="#00a8ff" stroke-width="2" x="8" y="27.09" width="11" height="11"/>
            <rect class="fill fill--none stroke stroke--thick" fill="none" stroke="#00a8ff" stroke-width="2" x="30" y="27" width="11" height="11"/>
            <rect class="fill fill--none stroke stroke--thick" fill="none" stroke="#00a8ff" stroke-width="2" x="19" y="27.09" width="11" height="11"/>
            <rect class="fill fill--none stroke stroke--thick" fill="none" stroke="#00a8ff" stroke-width="2" x="8" y="27.09" width="11" height="11"/>
            <rect class="fill fill--none stroke stroke--thick" fill="none" stroke="#00a8ff" stroke-width="2" x="19" y="38" width="11" height="11"/>
            <rect class="fill fill--none stroke stroke--thick" fill="none" stroke="#00a8ff" stroke-width="2" x="8" y="38" width="11" height="11"/>
            <rect class="fill fill--white stroke stroke--thick" fill="#fff" stroke="#00a8ff" stroke-width="2" x="30" y="38" width="22" height="23" rx="1" ry="1"/>
            <rect class="fill fill--blue stroke stroke-thin" fill="#00a8ff" stroke="#00a8ff" stroke-width="1" x="40" y="47" width="2" height="13"/>
            <polyline class="fill fill--none stroke stroke--thick" fill="none" stroke="#00a8ff" stroke-width="2" points="46 51.48 41 45.48 36 51.48"/>
        </g>
    </symbol>
</svg>
